<?xml version="1.0" encoding="utf-8"?>
<!-- Generator: Adobe Illustrator 24.2.0, SVG Export Plug-In . SVG Version: 6.00 Build 0)  -->
<svg version="1.1" id="Camada_1" xmlns="http://www.w3.org/2000/svg" xmlns:xlink="http://www.w3.org/1999/xlink" x="0px" y="0px"
	 viewBox="0 0 24 24" style="enable-background:new 0 0 24 24;" xml:space="preserve">
<style type="text/css">
	.st0{fill:#0095DE;}
</style>
<g>
	<path class="st0" d="M21.9,5.6c0,0,0-0.1-0.1-0.1c0,0,0-0.1-0.1-0.1l-3-4C18.6,1.1,18.3,1,18,1H6C5.7,1,5.4,1.1,5.2,1.4l-3,4
		c0,0,0,0.1-0.1,0.1c0,0,0,0.1-0.1,0.1C2,5.8,2,5.9,2,6v14c0,0.8,0.3,1.6,0.9,2.1C3.4,22.7,4.2,23,5,23h14c0.8,0,1.6-0.3,2.1-0.9
		S22,20.8,22,20V6C22,5.9,22,5.8,21.9,5.6z M6.5,3h11L19,5H5L6.5,3z M19.7,20.7C19.5,20.9,19.3,21,19,21H5c-0.3,0-0.5-0.1-0.7-0.3
		C4.1,20.5,4,20.3,4,20V7h16v13C20,20.3,19.9,20.5,19.7,20.7z"/>
	<path class="st0" d="M16,9c-0.6,0-1,0.4-1,1c0,0.8-0.3,1.6-0.9,2.1c-1.1,1.1-3.1,1.1-4.2,0C9.3,11.6,9,10.8,9,10c0-0.6-0.4-1-1-1
		s-1,0.4-1,1c0,1.3,0.5,2.6,1.5,3.5C9.4,14.5,10.7,15,12,15s2.6-0.5,3.5-1.5S17,11.3,17,10C17,9.4,16.6,9,16,9z"/>
</g>
</svg>
