<?xml version="1.0" encoding="utf-8"?>
<!-- Generator: Adobe Illustrator 24.2.0, SVG Export Plug-In . SVG Version: 6.00 Build 0)  -->
<svg version="1.1" id="Camada_1" xmlns="http://www.w3.org/2000/svg" xmlns:xlink="http://www.w3.org/1999/xlink" x="0px" y="0px"
	 viewBox="0 0 35.1 26.3" style="enable-background:new 0 0 35.1 26.3;" xml:space="preserve">
<style type="text/css">
	.st0{fill:#C2DC6F;}
</style>
<path class="st0" d="M30.7,0H4.4C2,0,0,2,0,4.4v17.5c0,2.4,2,4.4,4.4,4.4h26.2c2.4,0,4.4-2,4.4-4.4V4.4C35.1,2,33.1,0,30.7,0z
	 M4.4,3h26.2c0.8,0,1.4,0.6,1.4,1.4v4.3H3V4.4C3,3.6,3.6,3,4.4,3z M30.7,23.3H4.4c-0.8,0-1.4-0.6-1.4-1.4V11.8h29.1v10.2
	C32.1,22.7,31.4,23.3,30.7,23.3z"/>
</svg>
