<?xml version="1.0" encoding="utf-8"?>
<!-- Generator: Adobe Illustrator 24.2.0, SVG Export Plug-In . SVG Version: 6.00 Build 0)  -->
<svg version="1.1" id="Camada_1" xmlns="http://www.w3.org/2000/svg" xmlns:xlink="http://www.w3.org/1999/xlink" x="0px" y="0px"
	 viewBox="0 0 24 24" style="enable-background:new 0 0 24 24;" xml:space="preserve">
<style type="text/css">
	.st0{fill:#0095DE;}
</style>
<g>
	<path class="st0" d="M3,22c-0.3,0-0.5-0.1-0.7-0.3c-0.3-0.3-0.4-0.7-0.2-1l1.8-5.3C3.3,14.2,3,12.8,3,11.5c0-1.8,0.5-3.5,1.4-5
		S6.7,3.8,8.3,3c1.3-0.7,2.8-1,4.2-1c0,0,0,0,0,0H13c2.4,0.1,4.6,1.1,6.2,2.8c1.7,1.7,2.6,3.8,2.8,6.2l0,0.6c0,1.5-0.3,2.9-1,4.3
		c-0.8,1.6-2,2.9-3.5,3.8c-1.5,0.9-3.2,1.4-5,1.4c0,0,0,0,0,0c-1.3,0-2.6-0.3-3.8-0.8l-5.3,1.8C3.2,22,3.1,22,3,22z M12.5,4
		c-1.2,0-2.3,0.3-3.3,0.8c-1.3,0.6-2.3,1.6-3,2.8S5,10.1,5,11.5c0,1.2,0.3,2.3,0.8,3.3c0.1,0.2,0.1,0.5,0.1,0.8l-1.3,3.8l3.8-1.3
		c0.3-0.1,0.5-0.1,0.8,0.1c1,0.5,2.2,0.8,3.3,0.8c0,0,0,0,0,0c1.4,0,2.8-0.4,3.9-1.1c1.2-0.7,2.1-1.8,2.8-3c0.5-1,0.8-2.2,0.8-3.4
		c0,0,0,0,0,0V11c-0.1-1.8-0.9-3.5-2.2-4.8c-1.3-1.3-3-2.1-4.9-2.2L12.5,4C12.5,4,12.5,4,12.5,4z"/>
</g>
</svg>
