<svg xmlns="http://www.w3.org/2000/svg" viewBox="0 0 28.09 24"><defs><style>.cls-1{fill:#b2d249;}</style></defs><g id="Camada_2" data-name="Camada 2"><g id="Camada_1-2" data-name="Camada 1"><g id="Camada_2-2" data-name="Camada 2"><g id="Camada_1-2-2" data-name="Camada 1-2"><path class="cls-1" d="M25.09,1.7a8.94,8.94,0,0,1,2.7,4,7.85,7.85,0,0,1,0,4.3,7.61,7.61,0,0,1-2.1,3.6l-9.6,9.5a2.51,2.51,0,0,1-2,.9,2.89,2.89,0,0,1-2.1-.9l-9.6-9.5A8.21,8.21,0,0,1,.29,10a7,7,0,0,1,.1-4.3A8.41,8.41,0,0,1,3,1.7,6.6,6.6,0,0,1,6.49.1a9,9,0,0,1,4,.3,10.69,10.69,0,0,1,3.6,2.1A8.08,8.08,0,0,1,17.49.4a9,9,0,0,1,4-.3A7.4,7.4,0,0,1,25.09,1.7Zm-1.2,10.1a5.07,5.07,0,0,0,1.4-2.5,4.78,4.78,0,0,0,0-2.9,5.84,5.84,0,0,0-1.8-2.7,5.08,5.08,0,0,0-3.8-1.1A5.82,5.82,0,0,0,16,4.3L14.1,6.2,12.2,4.3A5.77,5.77,0,0,0,8.5,2.6,4.83,4.83,0,0,0,4.8,3.7,4.36,4.36,0,0,0,3,6.4a5.7,5.7,0,0,0-.1,2.9,6.72,6.72,0,0,0,1.4,2.5l9.6,9.5q.15.3.3,0Z"/></g></g></g></g></svg>