<svg width="48" height="32" viewBox="0 0 48 32" fill="none" xmlns="http://www.w3.org/2000/svg">
<path d="M43.52 0H19.2C16.896 0 14.976 1.76687 14.72 4.1227H5.76C5.248 4.1227 4.8 4.38446 4.608 4.84254L0.128 13.8078C0.0639999 13.8732 0.0640002 13.8732 0.0640002 13.9387V14.0695H0V14.2658V24.8016C0 25.5215 0.576 26.1104 1.28 26.1104H7.168C7.168 29.3824 9.728 32 12.928 32C16.128 32 18.688 29.3824 18.688 26.1104H31.232C31.232 29.3824 33.792 32 36.992 32C40.192 32 42.752 29.3824 42.752 26.1104H46.72C47.424 26.1104 48 25.5215 48 24.8016V4.58078C48 2.02863 46.016 0 43.52 0ZM6.528 6.74029H14.72V13.0879H3.392L6.528 6.74029ZM7.744 23.4274H2.56V15.7055H14.72V20.4172C14.144 20.2209 13.504 20.1554 12.928 20.1554C10.752 20.1554 8.704 21.3988 7.744 23.4274ZM12.928 29.317C11.136 29.317 9.728 27.8773 9.728 26.045C9.728 24.2127 11.136 22.773 12.928 22.773C14.72 22.773 16.128 24.2127 16.128 26.045C16.064 27.8119 14.656 29.2515 12.928 29.317ZM36.992 29.317C35.264 29.2515 33.856 27.8119 33.792 26.045C33.792 24.2127 35.2 22.773 36.992 22.773C38.784 22.773 40.192 24.2127 40.192 26.045C40.192 27.8773 38.784 29.317 36.992 29.317ZM45.44 23.4274H42.176C40.768 20.5481 37.312 19.3701 34.432 20.8098C33.344 21.3988 32.384 22.3149 31.872 23.4274H18.112C17.856 22.9039 17.536 22.4458 17.152 21.9877C17.216 21.7914 17.28 21.5951 17.28 21.3988V4.58078C17.28 3.4683 18.112 2.61759 19.2 2.61759H43.52C44.608 2.61759 45.44 3.4683 45.44 4.58078V23.4274Z" fill="#C2DC6F"/>
</svg>
