<?xml version="1.0" encoding="utf-8"?>
<!-- Generator: Adobe Illustrator 24.2.0, SVG Export Plug-In . SVG Version: 6.00 Build 0)  -->
<svg version="1.1" id="Camada_1" xmlns="http://www.w3.org/2000/svg" xmlns:xlink="http://www.w3.org/1999/xlink" x="0px" y="0px"
	 viewBox="0 0 24 24" style="enable-background:new 0 0 24 24;" xml:space="preserve">
<style type="text/css">
	.st0{fill:#0095DE;}
</style>
<g>
	<path class="st0" d="M20,22c-0.6,0-1-0.4-1-1v-2c0-0.8-0.3-1.6-0.9-2.1C17.6,16.3,16.8,16,16,16H8c-0.8,0-1.6,0.3-2.1,0.9
		C5.3,17.4,5,18.2,5,19v2c0,0.6-0.4,1-1,1s-1-0.4-1-1v-2c0-1.3,0.5-2.6,1.5-3.5C5.4,14.5,6.7,14,8,14h8c1.3,0,2.6,0.5,3.5,1.5
		c0.9,0.9,1.5,2.2,1.5,3.5v2C21,21.6,20.6,22,20,22z"/>
</g>
<g>
	<path class="st0" d="M12,12c-2.8,0-5-2.2-5-5s2.2-5,5-5s5,2.2,5,5S14.8,12,12,12z M12,4c-1.7,0-3,1.3-3,3s1.3,3,3,3s3-1.3,3-3
		S13.7,4,12,4z"/>
</g>
</svg>
