<svg xmlns="http://www.w3.org/2000/svg" viewBox="0 0 15.75 15.75"><defs><style>.cls-1{fill:#5da822;}</style></defs><g id="Camada_2" data-name="Camada 2"><g id="Camada_1-2" data-name="Camada 1"><path class="cls-1" d="M13.39,2.29a8.76,8.76,0,0,1,1.73,2.56,7.24,7.24,0,0,1,.63,3,7.65,7.65,0,0,1-1.09,3.91,8,8,0,0,1-2.88,2.84,7.52,7.52,0,0,1-3.9,1.06,7.55,7.55,0,0,1-3.73-.95L0,15.75l1.12-4a7.62,7.62,0,0,1-1-3.91A7.61,7.61,0,0,1,1.12,3.9,8.1,8.1,0,0,1,4,1.05,7.62,7.62,0,0,1,7.88,0a7.74,7.74,0,0,1,3,.6A9.26,9.26,0,0,1,13.39,2.29Zm-5.51,12a6.29,6.29,0,0,0,3.26-.88,6.62,6.62,0,0,0,2.4-2.36,6.24,6.24,0,0,0,.91-3.27,6.12,6.12,0,0,0-.53-2.46,7.31,7.31,0,0,0-1.47-2.11,7.2,7.2,0,0,0-2.11-1.44A6.7,6.7,0,0,0,7.88,1.3a6.5,6.5,0,0,0-3.27.88A6.67,6.67,0,0,0,2.25,4.57,6.08,6.08,0,0,0,1.37,7.8a6,6,0,0,0,1,3.45l.14.25-.67,2.39,2.46-.64.25.14A6,6,0,0,0,7.88,14.31Zm3.55-4.89.1.07a1,1,0,0,1,.28.18V10a1.87,1.87,0,0,1-.14.6,1.45,1.45,0,0,1-.56.59,1.25,1.25,0,0,1-.74.32,2.17,2.17,0,0,1-.95,0A5.61,5.61,0,0,1,8,11,7.75,7.75,0,0,1,4.75,8.16l-.07-.07a3.39,3.39,0,0,1-.78-2A2.23,2.23,0,0,1,4.54,4.5l0,0a.75.75,0,0,1,.53-.24h.42a.44.44,0,0,1,.21.07c.07,0,.11.1.18.25L6.5,6a.46.46,0,0,1,0,.35A2.77,2.77,0,0,1,6.08,7c-.1.11-.17.18-.17.25s0,.1.07.17A3.86,3.86,0,0,0,7.14,8.82a5.94,5.94,0,0,0,1.47.88c.18.11.32.11.43,0l.63-.78a.22.22,0,0,1,.17-.14c.07,0,.14,0,.25,0S10.72,9.07,11.43,9.42Z"/></g></g></svg>