<svg viewBox="0 0 24 24"><path d="M21.9 5.6s0-.1-.1-.1c0 0 0-.1-.1-.1l-3-4c-.1-.3-.4-.4-.7-.4H6c-.3 0-.6.1-.8.4l-3 4s0 .1-.1.1c0 0 0 .1-.1.1V20c0 .8.3 1.6.9 2.1.5.6 1.3.9 2.1.9h14c.8 0 1.6-.3 2.1-.9s.9-1.3.9-2.1V6c0-.1 0-.2-.1-.4zM6.5 3h11L19 5H5l1.5-2zm13.2 17.7c-.2.2-.4.3-.7.3H5c-.3 0-.5-.1-.7-.3-.2-.2-.3-.4-.3-.7V7h16v13c0 .3-.1.5-.3.7z"/><path d="M16 9c-.6 0-1 .4-1 1 0 .8-.3 1.6-.9 2.1-1.1 1.1-3.1 1.1-4.2 0-.6-.5-.9-1.3-.9-2.1 0-.6-.4-1-1-1s-1 .4-1 1c0 1.3.5 2.6 1.5 3.5.9 1 2.2 1.5 3.5 1.5s2.6-.5 3.5-1.5S17 11.3 17 10c0-.6-.4-1-1-1z"/></svg>