<svg viewBox="0 0 28.09 24"><path d="M25.09 1.7a8.94 8.94 0 012.7 4 7.85 7.85 0 010 4.3 7.61 7.61 0 01-2.1 3.6l-9.6 9.5a2.51 2.51 0 01-2 .9 2.89 2.89 0 01-2.1-.9l-9.6-9.5A8.21 8.21 0 01.29 10a7 7 0 01.1-4.3A8.41 8.41 0 013 1.7 6.6 6.6 0 016.49.1a9 9 0 014 .3 10.69 10.69 0 013.6 2.1 8.08 8.08 0 013.4-2.1 9 9 0 014-.3 7.4 7.4 0 013.6 1.6zm-1.2 10.1a5.07 5.07 0 001.4-2.5 4.78 4.78 0 000-2.9 5.84 5.84 0 00-1.8-2.7 5.08 5.08 0 00-3.8-1.1A5.82 5.82 0 0016 4.3l-1.9 1.9-1.9-1.9a5.77 5.77 0 00-3.7-1.7 4.83 4.83 0 00-3.7 1.1A4.36 4.36 0 003 6.4a5.7 5.7 0 00-.1 2.9 6.72 6.72 0 001.4 2.5l9.6 9.5q.15.3.3 0z"/></svg>