<svg width="48" height="32"><path d="M43.52 0H19.2c-2.304 0-4.224 1.767-4.48 4.123H5.76c-.512 0-.96.261-1.152.72l-4.48 8.965c-.064.065-.064.065-.064.13v.131H0v10.733c0 .72.576 1.308 1.28 1.308h5.888c0 3.272 2.56 5.89 5.76 5.89 3.2 0 5.76-2.618 5.76-5.89h12.544c0 3.272 2.56 5.89 5.76 5.89 3.2 0 5.76-2.618 5.76-5.89h3.968c.704 0 1.28-.588 1.28-1.308V4.58C48 2.029 46.016 0 43.52 0zM6.528 6.74h8.192v6.348H3.392L6.528 6.74zm1.216 16.687H2.56v-7.721h12.16v4.711c-.576-.196-1.216-.262-1.792-.262a5.74 5.74 0 00-5.184 3.272zm5.184 5.89c-1.792 0-3.2-1.44-3.2-3.272 0-1.832 1.408-3.272 3.2-3.272 1.792 0 3.2 1.44 3.2 3.272-.064 1.767-1.472 3.206-3.2 3.272zm24.064 0c-1.728-.066-3.136-1.505-3.2-3.272 0-1.832 1.408-3.272 3.2-3.272 1.792 0 3.2 1.44 3.2 3.272 0 1.832-1.408 3.272-3.2 3.272zm8.448-5.89h-3.264a5.737 5.737 0 00-7.744-2.617c-1.088.589-2.048 1.505-2.56 2.617h-13.76a7.017 7.017 0 00-.96-1.44c.064-.196.128-.392.128-.588V4.58c0-1.113.832-1.963 1.92-1.963h24.32c1.088 0 1.92.85 1.92 1.963v18.846z"/></svg>