<svg viewBox="0 0 15.75 15.75"><path d="M13.39 2.29a8.76 8.76 0 011.73 2.56 7.24 7.24 0 01.63 3 7.65 7.65 0 01-1.09 3.91 8 8 0 01-2.88 2.84 7.52 7.52 0 01-3.9 1.06 7.55 7.55 0 01-3.73-.95L0 15.75l1.12-4a7.62 7.62 0 01-1-3.91 7.61 7.61 0 011-3.94A8.1 8.1 0 014 1.05 7.62 7.62 0 017.88 0a7.74 7.74 0 013 .6 9.26 9.26 0 012.51 1.69zm-5.51 12a6.29 6.29 0 003.26-.88 6.62 6.62 0 002.4-2.36 6.24 6.24 0 00.91-3.27 6.12 6.12 0 00-.53-2.46 7.31 7.31 0 00-1.47-2.11 7.2 7.2 0 00-2.11-1.44 6.7 6.7 0 00-2.46-.47 6.5 6.5 0 00-3.27.88 6.67 6.67 0 00-2.36 2.39 6.08 6.08 0 00-.88 3.23 6 6 0 001 3.45l.14.25-.67 2.39 2.46-.64.25.14a6 6 0 003.33.92zm3.55-4.89l.1.07a1 1 0 01.28.18V10a1.87 1.87 0 01-.14.6 1.45 1.45 0 01-.56.59 1.25 1.25 0 01-.74.32 2.17 2.17 0 01-.95 0A5.61 5.61 0 018 11a7.75 7.75 0 01-3.25-2.84l-.07-.07a3.39 3.39 0 01-.78-2 2.23 2.23 0 01.64-1.59.75.75 0 01.53-.24h.42a.44.44 0 01.21.07c.07 0 .11.1.18.25L6.5 6a.46.46 0 010 .35 2.77 2.77 0 01-.42.65c-.1.11-.17.18-.17.25s0 .1.07.17a3.86 3.86 0 001.16 1.4 5.94 5.94 0 001.47.88c.18.11.32.11.43 0l.63-.78a.22.22 0 01.17-.14h.25c.11 0 .63.29 1.34.64z"/></svg>