<svg class="svg-sprites" id="skin-sprite" xmlns="http://www.w3.org/2000/svg" xmlns:xlink="http://www.w3.org/1999/xlink">
    <symbol viewBox="0 0 225.9 226" id="z-brasil"><path d="M225.8 78.9c-.7-8.8-4.6-13.6-13.2-15.7-.7-.2-1.4-.4-2.1-.4-1.8-.2-2.8-1.1-3.7-2.7-1-1.9-2.2-3.8-3.5-5.6-2.6-3.4-6-5.5-10.3-6-2.4-.3-4.7-.5-7.1-.6-1.3 0-2.2-.5-3.1-1.3-2.2-2-4.8-3.3-7.9-3.2-.5 0-1.2-.5-1.5-.9-1.7-1.9-3.6-3.5-6.1-3.6-2-.1-3.1-.9-4.4-2.3-3.3-3.4-7.6-4.5-11.1-2.5-2.2 1.3-4.1.4-6.3.5.6-.9 1-1.5 1.3-2.1 2.4-4.3 1.7-10-1.8-12.3-1.8-1.1-2.9-2.6-4-4.3-.9-1.3-1.7-2.6-2.7-3.7-5.3-6.1-12.4-6-17.6.1-.9 1-1.7 2.1-2.5 3.1-2.7-1.2-5.2-2.5-7.9-3.3-4.4-1.4-8.7.2-10.6 3.9-1.3 2.6-3.8 2.7-6.2 3.9.2-.7.2-1 .3-1.3.9-3.2 1-6.3-1.2-9.1-.3-.4-.3-1.1-.4-1.7-.5-2.9-1.8-5.3-4.5-6.7C82.8-1.4 77.2 0 73.9 4.3c-.5.7-1.6 1.3-2.4 1.3-2.3 0-4.7-.3-7-.5-2.6-.3-5.2-1.2-7.8-1-5.8.4-9.6 5.4-8.5 10.6.6 2.4 2.2 4.2 4 5.7.5.4 1 1 1.5 1.5-.2.2-.4.4-.5.6-.7-.5-1.6-.9-2.1-1.6-3.1-4.1-6.9-5.8-12-4.4-.4.1-.8.1-1.1.2-4 .9-8.1 1.5-11.9 2.7-5.2 1.7-7 6.1-5.3 11.3.2.5.2 1.1.1 1.6-.5 3.9-.6 7.7 2.3 10.9.2.2.4.6.3.9-.3 2.5-.6 5-1 7.7h-.7c-6.8-.4-11.2 3.7-14.5 8.7C4.7 64.4 3 68.8 1.1 73c-1.7 4-1.8 9.4 2.8 12.6.4.3.7 1.1.7 1.7.5 2.8 1.4 5.4 4 6.7 2.8 1.4 5.4 3 8.2 4.3 2.5 1.1 5.3 1.6 7.5 3.5.5.5 1.4.5 2.2.6 3.4.3 6.9.7 10.3.9 3.7.2 6.7-1.1 8.7-4.3.3-.6 1.2-.8 2-1.3.2 1 .4 1.5.5 2.1.8 3.6 2.5 6.6 6 8 2.3 1 4.7 1.6 7 2.4 1.7.6 3.4 1.2 5 2 2.7 1.3 4.9 3.7 8.1 3.8.3 0 .8.6.9 1 .5 1.9.7 3.8 1.3 5.6.6 1.7 1.2 3.8 2.5 4.9 1.7 1.5 4 2.5 6.2 3.1 2 .5 3.4 1.6 4.9 2.9-.2.3-.3.5-.5.7-2.7 3.8-3.4 7.9-2 12.4.2.6.2 1.3.2 1.9-.9 6.5 1.6 10.9 7.7 13.4.6.2 1 1 1.3 1.6.7 1.5 1.3 3.1 2 4.7.2.4.6.8.5 1.2-.3 3.2.8 5.8 2.5 7.9-2.6 2.6-5.2 5-7.5 7.6-.9 1-1.2 2.6-1.7 3.9-.3.8-.5 1.7-1.1 2.3-3.6 4.1-3.1 9.7 1.4 12.9 2.4 1.8 5 3.3 7.4 5.2 1.9 1.6 4 2.9 3 6.4-1.2 4.2.8 7.8 4 9.7 3.2 1.9 7.3 1.4 10.6-1.3 2.5-2 4.3-4.7 5.7-7.6.3-.6.7-1.2 1.2-1.5 2.2-1.1 3.8-2.8 5.1-4.8.3-.5.9-1.1 1.4-1.3 4-1.5 5.8-4.5 6.2-8.6.1-.8.5-1.7 1-2.2 2.4-2.4 4.2-5.2 4.8-8.5.7-3.7 1-7.5 1.5-11.5 3.2.6 5.8-1.4 8.5-2.9.6-.3 1.3-.6 1.9-.9 2-.8 4.1-1.3 6-2.4 1.9-1 3.5-1.1 5.5-.4 4.6 1.7 8.7.8 11.7-3.1 1.7-2.1 3-4.6 4.1-7.1.9-2.2 2.1-3.8 4.2-5.1 3.9-2.3 6.4-5.7 6.6-10.3.2-3.9 1.3-7.3 3.5-10.5l.6-1.2c1.2-2.5 2.1-5.1 1.7-8-.2-1.7 0-3.3 1.1-4.8.4-.5.4-1.2.7-1.8.2-.4.5-.9.9-1.1 3.5-1.4 4.9-4.4 5.9-7.7.4-1.5 1.1-2.7 2.6-3.4 1.8-.8 3.6-1.8 5.3-2.7 3.1-1.8 5.5-4.2 6.9-7.6 2.5-5.9 4-11.8 3.5-18.1zm-9.1 10.9c-.2.5-.3 1.2-.5 1.8-.8 2.9-2.4 5-5.1 6.4l-6.3 3.3c-1.8.9-2.8 2.2-3.5 4-.5 1.4-1 2.8-1.6 4.1-.4.8-1.2 1.3-1.8 1.9-.6-.7-1.3-1.4-1.9-2.1-.2-.2-.1-.6-.3-.8-.4-.5-.9-.9-1.4-1.4-.3.7-.8 1.3-.8 2 0 1.8.2 3.6.2 5.4 0 1.2-.2 2.6-.8 3.4-2 2.4-1.7 5.1-1.7 7.8 0 1.6-.4 3.2-.9 4.7-.3 1.1-1 2.1-1.6 3-1.8 2.8-2.8 5.9-2.8 9.2 0 3.2-1.3 5.6-4.1 7.2-2.9 1.6-4.8 4-6 7.2-.7 2-1.9 3.9-3 5.7-.8 1.3-2 1.7-3.6 1.1-4-1.6-7.8-1.4-11.6.8-1.5.9-3.4 1.2-5.1 1.8-.9.3-1.8.7-2.6 1.2-1.9 1.2-3.6 2.6-6.2 2.2-3.8-.6-7.7 4.4-7.2 8.1.4 3-.1 6.1-.6 9.2-.4 2.9-2.3 5-4.8 6.4-1.1.6-1.5 1.3-1.4 2.5.1.7.1 1.3.1 2 0 2.5-.1 2.5-2.4 3.2-.9.3-1.7 1-2.4 1.7s-1.2 1.6-1.6 2.5c-1.1 2.1-2.8 2.8-5.1 2.6-2.2-.2-2.6.3-2.3 2.5.1 1 .5 2.2.1 3-.9 1.6-2.3 3.1-3.6 4.5-.3.3-1.1.5-1.5.2-.3-.2-.6-1-.4-1.4.4-1.4.8-2.8 1.4-4.2 1.3-3.1 1-4-1.9-5.4-.9-.5-1.9-1-2.5-1.8-2.6-3.3-6-5.5-9.6-7.4-.5-.3-.9-.6-1.9-1.4 1-.7 1.8-1.1 2.5-1.7 1.4-1.2 2.2-2.6 1.8-4.5-.1-.3 0-.8.2-1 2.4-2.6 4.5-5.6 8.5-6.1 1.2-.2 2.4-.9 3.4-1.6 1.5-1 2.3-2.4 2-4.4-.1-.9.2-1.9.3-3-1.1-.1-2.3-.3-3.4-.4-.5-.1-1.1-.2-1.6-.4-3.2-1.1-3.8-3.2-1.6-5.7.9-1 2-1.9 3.3-3.1h-4c-2.4-.1-3.6-1.5-3.2-3.9.2-1 .6-1.9.8-2.8.6-2-.2-2.7-2.2-2.7-1.9 0-3.9-.4-5.7-1-1.7-.6-2-2.2-2-4 0-2 .1-4-.3-5.9-.6-2.3-.2-4.1 1.1-5.9 1-1.3 2-2.5 2.9-3.8 1.3-2 1.1-3.2-.7-4.7-2-1.7-3.9-3.6-6.1-5-1.4-.9-3.2-1.3-4.9-1.6-2.5-.5-2.7-.7-3.1-3.1-.2-1.2-.9-2.4-1.1-3.6-.2-2.1-.2-4.3-.1-6.4.1-1.5-.6-2.1-1.9-2.1-1.2 0-2.4.4-3.6.3-1.3-.1-2.7-.3-3.9-.8-3-1.5-5.5-3.8-9-4.5-2.2-.4-4.3-1.2-6.5-1.9-1.3-.4-2.2-1.3-2.3-2.6-.2-2.9-.3-5.9-.4-8.9-.1-.9-.2-1.9-.4-2.8-1.1.2-2.1.3-3.2.6-.5.1-.9.6-1.3 1-1.3 1.2-2.8 1.9-4.6 2-3.1.1-5.7 1.2-6.9 4.4-.2.4-1.1.8-1.6.8-3.1-.2-6.3-.4-9.4-.8-.5-.1-1.4-1.2-1.3-1.8.1-2.2.4-4.4.7-6.6 0-.4.3-.7.4-1.1-.1-.2-.2-.3-.3-.5-.8.4-1.8.7-2.4 1.3-1.2 1.2-2.1 2.7-3.2 4-1.4 1.7-1.7 1.6-2.9-.2-.5-.8-1.6-1.2-2.5-1.6-.6-.3-1.4-.1-2.1-.2-1.3-.1-2-.8-2-2.2v-1.5c0-3.2-.4-3.8-3.3-4.9-1.1-.4-1.5-1.1-1.2-2.2.2-.8.5-1.7.9-2.5 1.6-3.4 3.1-6.8 5-10.1.9-1.6 2.4-3 3.8-4.2 1.6-1.4 3.5-1.4 5.5-1 .4.1.8.1 1.2.1 4.8.5 6.5-1 6.5-5.9 0-.9 0-1.8-.1-2.6-.5-2.5-.1-4.7 1.3-6.9 1.3-2.1 1-3.1-1.2-4.7-1.5-1.1-2.7-2.2-2.5-4.3.1-1.2.4-1.8 1.6-2.1 1.4-.4 2.7-1 4-1.6v-.7c-1.1-.5-2.3-.9-3.3-1.6-.9-.6-1.7-1.3-2.6-2 .9-.5 1.8-1.2 2.8-1.4 3.7-.8 7.4-1.5 11.2-2.2.7-.1 1.6.4 2.2.8.7.5 1 1.5 1.7 2 1.2 1 2.6 2 4 2.9 1 .6 2.2 1 3.3 1.3 1 .2 2.2.5 3 .1 3.7-1.7 6.8-4.3 9.6-7.3.2-.2.3-.4.4-.7.1-.1 0-.3.1-.9H63c-1.1 0-1.4-.3-1.6-1.5-.2-1.3-.9-2.7-1.7-3.8-.8-1.1-2-1.9-3-2.8-1.1-1-1-1.7.4-2 1.3-.2 2.7 0 4 .2 2.7.4 5.4 1.2 8.1 1.3 2.3.1 4.7-.3 7-.7 1.8-.3 2.9-1.5 3.6-3.1.7-1.4 1.7-2.2 3.4-2 1 .2 1.6.6 1.6 1.7 0 1.9.1 3.8 1.8 5.1.3.2.2 1.1.1 1.5-.5 1.8-1.2 3.5-1.8 5.3-.9 2.6-.6 3.5 1.8 4.9 3.5 2 7.2 1.8 10.9.5 1.9-.7 3.8-1.5 5.7-2.2 1.5-.6 2.4-1.7 2.8-3.2.4-1.8 1-2.2 2.8-1.6 1 .4 2 .9 3 1.3 1.3.7 2.6 1.4 4 2 3.8 1.6 5.4 1.2 8-2.1 1.1-1.4 2.2-2.9 3.4-4.2 1.6-1.7 3.1-1.7 4.7 0 1.1 1.2 2 2.6 3 4 1.5 2.1 2.7 4.3 5.1 5.5.4.2.7 1.4.4 1.8-.5.9-1.2 1.7-2 2.2-1 .7-1.8 1.1-1.3 2.6.2.5-.3 1.4-.8 1.9-1.4 1.4-2.9 2.7-4.3 4.2-1.6 1.7-3.4 3.4-4.7 5.3-.8 1.2-1.1 2.8-1.2 4.3-.1 1.3.9 1.8 2 1.1 1.3-.8 2.5-1.8 3.6-2.8 4.1-3.7 10.6-5.4 16.2-4.1-.8 1.1-1.6 2.1-2.5 3.1-.6.8-.4 1.3.3 1.9 2.1 1.6 5.2 1 6.7-1.5.5-.8.8-1.8 1.1-2.7 1-3 2.2-3.2 4.3-.9.6.7 1.2 1.5 1.8 2.2.7.7 1.3 1.6 2.2 2 .8.4 2 .5 2.7.2 1.4-.7 2.2-.3 2.9.8 1.4 2 2.6 3.9 2.8 6.4 0 .6.2 1.2.7 1.9.6-.9 1.2-1.8 1.9-2.7 1.8-2.6 2.8-2.7 5.2-.6 2.1 1.9 4.3 3.2 7.4 2.9 2.2-.2 4.4.2 6.6.5 2.5.3 4.3 1.7 5.6 3.7 1.1 1.7 2.1 3.4 3.1 5.1 1.6 2.8 3.9 4.4 7 5.1 1.6.3 3.2.7 4.8 1.2 3.1.9 4.8 3 5.3 6.1.6 4.4.5 8.6-1.2 12.6z"/></symbol>
    <symbol viewBox="0 0 35.1 26.3" id="z-card"><path d="M30.7 0H4.4C2 0 0 2 0 4.4v17.5c0 2.4 2 4.4 4.4 4.4h26.2c2.4 0 4.4-2 4.4-4.4V4.4C35.1 2 33.1 0 30.7 0zM4.4 3h26.2c.8 0 1.4.6 1.4 1.4v4.3H3V4.4C3 3.6 3.6 3 4.4 3zm26.3 20.3H4.4c-.8 0-1.4-.6-1.4-1.4V11.8h29.1V22c0 .7-.7 1.3-1.4 1.3z"/></symbol>
    <symbol viewBox="0 0 24 24" id="z-cart"><path d="M21.9 5.6s0-.1-.1-.1c0 0 0-.1-.1-.1l-3-4c-.1-.3-.4-.4-.7-.4H6c-.3 0-.6.1-.8.4l-3 4s0 .1-.1.1c0 0 0 .1-.1.1V20c0 .8.3 1.6.9 2.1.5.6 1.3.9 2.1.9h14c.8 0 1.6-.3 2.1-.9s.9-1.3.9-2.1V6c0-.1 0-.2-.1-.4zM6.5 3h11L19 5H5l1.5-2zm13.2 17.7c-.2.2-.4.3-.7.3H5c-.3 0-.5-.1-.7-.3-.2-.2-.3-.4-.3-.7V7h16v13c0 .3-.1.5-.3.7z"/><path d="M16 9c-.6 0-1 .4-1 1 0 .8-.3 1.6-.9 2.1-1.1 1.1-3.1 1.1-4.2 0-.6-.5-.9-1.3-.9-2.1 0-.6-.4-1-1-1s-1 .4-1 1c0 1.3.5 2.6 1.5 3.5.9 1 2.2 1.5 3.5 1.5s2.6-.5 3.5-1.5S17 11.3 17 10c0-.6-.4-1-1-1z"/></symbol>
    <symbol viewBox="0 0 24 24" id="z-chat"><path d="M3 22c-.3 0-.5-.1-.7-.3-.3-.3-.4-.7-.2-1l1.8-5.3c-.6-1.2-.9-2.6-.9-3.9 0-1.8.5-3.5 1.4-5S6.7 3.8 8.3 3c1.3-.7 2.8-1 4.2-1h.5c2.4.1 4.6 1.1 6.2 2.8 1.7 1.7 2.6 3.8 2.8 6.2v.6c0 1.5-.3 2.9-1 4.3-.8 1.6-2 2.9-3.5 3.8-1.5.9-3.2 1.4-5 1.4-1.3 0-2.6-.3-3.8-.8l-5.3 1.8c-.2-.1-.3-.1-.4-.1zm9.5-18c-1.2 0-2.3.3-3.3.8-1.3.6-2.3 1.6-3 2.8S5 10.1 5 11.5c0 1.2.3 2.3.8 3.3.1.2.1.5.1.8l-1.3 3.8 3.8-1.3c.3-.1.5-.1.8.1 1 .5 2.2.8 3.3.8 1.4 0 2.8-.4 3.9-1.1 1.2-.7 2.1-1.8 2.8-3 .5-1 .8-2.2.8-3.4V11c-.1-1.8-.9-3.5-2.2-4.8-1.3-1.3-3-2.1-4.9-2.2h-.4z"/></symbol>
    <symbol viewBox="0 0 28.09 24" id="z-heart"><path d="M25.09 1.7a8.94 8.94 0 012.7 4 7.85 7.85 0 010 4.3 7.61 7.61 0 01-2.1 3.6l-9.6 9.5a2.51 2.51 0 01-2 .9 2.89 2.89 0 01-2.1-.9l-9.6-9.5A8.21 8.21 0 01.29 10a7 7 0 01.1-4.3A8.41 8.41 0 013 1.7 6.6 6.6 0 016.49.1a9 9 0 014 .3 10.69 10.69 0 013.6 2.1 8.08 8.08 0 013.4-2.1 9 9 0 014-.3 7.4 7.4 0 013.6 1.6zm-1.2 10.1a5.07 5.07 0 001.4-2.5 4.78 4.78 0 000-2.9 5.84 5.84 0 00-1.8-2.7 5.08 5.08 0 00-3.8-1.1A5.82 5.82 0 0016 4.3l-1.9 1.9-1.9-1.9a5.77 5.77 0 00-3.7-1.7 4.83 4.83 0 00-3.7 1.1A4.36 4.36 0 003 6.4a5.7 5.7 0 00-.1 2.9 6.72 6.72 0 001.4 2.5l9.6 9.5q.15.3.3 0z"/></symbol>
    <symbol viewBox="0 0 46 32" id="z-mail"><path d="M1.47 0A1.51 1.51 0 000 1.6v28.8A1.51 1.51 0 001.47 32h43.06A1.51 1.51 0 0046 30.4V1.6A1.51 1.51 0 0044.53 0zm4 3.2h35L23 19.2zM2.94 5l11.45 10.52L2.94 26.77zm40.12 0v21.77L31.61 15.52zM16.69 17.6l5.38 4.91a1.45 1.45 0 001.91 0l5.38-4.91 11.4 11.15H5.29z"/></symbol>
    <symbol viewBox="0 0 17 18" id="z-search"><path d="M11.571 7.929c0 2.48-2.019 4.5-4.5 4.5a4.505 4.505 0 01-4.5-4.5c0-2.481 2.02-4.5 4.5-4.5 2.481 0 4.5 2.019 4.5 4.5zm5.143 8.357c0-.342-.14-.673-.371-.904l-3.446-3.446a7.055 7.055 0 001.246-4.007A7.069 7.069 0 007.07.857 7.069 7.069 0 000 7.93 7.069 7.069 0 007.071 15a7.055 7.055 0 004.008-1.245l3.446 3.435c.23.24.562.381.904.381.703 0 1.285-.582 1.285-1.285z"/></symbol>
    <symbol viewBox="0 0 48 32" id="z-truck"><path d="M43.52 0H19.2c-2.304 0-4.224 1.767-4.48 4.123H5.76c-.512 0-.96.261-1.152.72l-4.48 8.965c-.064.065-.064.065-.064.13v.131H0v10.733c0 .72.576 1.308 1.28 1.308h5.888c0 3.272 2.56 5.89 5.76 5.89 3.2 0 5.76-2.618 5.76-5.89h12.544c0 3.272 2.56 5.89 5.76 5.89 3.2 0 5.76-2.618 5.76-5.89h3.968c.704 0 1.28-.588 1.28-1.308V4.58C48 2.029 46.016 0 43.52 0zM6.528 6.74h8.192v6.348H3.392L6.528 6.74zm1.216 16.687H2.56v-7.721h12.16v4.711c-.576-.196-1.216-.262-1.792-.262a5.74 5.74 0 00-5.184 3.272zm5.184 5.89c-1.792 0-3.2-1.44-3.2-3.272 0-1.832 1.408-3.272 3.2-3.272 1.792 0 3.2 1.44 3.2 3.272-.064 1.767-1.472 3.206-3.2 3.272zm24.064 0c-1.728-.066-3.136-1.505-3.2-3.272 0-1.832 1.408-3.272 3.2-3.272 1.792 0 3.2 1.44 3.2 3.272 0 1.832-1.408 3.272-3.2 3.272zm8.448-5.89h-3.264a5.737 5.737 0 00-7.744-2.617c-1.088.589-2.048 1.505-2.56 2.617h-13.76a7.017 7.017 0 00-.96-1.44c.064-.196.128-.392.128-.588V4.58c0-1.113.832-1.963 1.92-1.963h24.32c1.088 0 1.92.85 1.92 1.963v18.846z"/></symbol>
    <symbol viewBox="0 0 24 24" id="z-user"><path d="M20 22c-.6 0-1-.4-1-1v-2c0-.8-.3-1.6-.9-2.1-.5-.6-1.3-.9-2.1-.9H8c-.8 0-1.6.3-2.1.9-.6.5-.9 1.3-.9 2.1v2c0 .6-.4 1-1 1s-1-.4-1-1v-2c0-1.3.5-2.6 1.5-3.5.9-1 2.2-1.5 3.5-1.5h8c1.3 0 2.6.5 3.5 1.5.9.9 1.5 2.2 1.5 3.5v2c0 .6-.4 1-1 1zm-8-10c-2.8 0-5-2.2-5-5s2.2-5 5-5 5 2.2 5 5-2.2 5-5 5zm0-8c-1.7 0-3 1.3-3 3s1.3 3 3 3 3-1.3 3-3-1.3-3-3-3z"/></symbol>
    <symbol viewBox="0 0 15.75 15.75" id="z-whatsapp"><path d="M13.39 2.29a8.76 8.76 0 011.73 2.56 7.24 7.24 0 01.63 3 7.65 7.65 0 01-1.09 3.91 8 8 0 01-2.88 2.84 7.52 7.52 0 01-3.9 1.06 7.55 7.55 0 01-3.73-.95L0 15.75l1.12-4a7.62 7.62 0 01-1-3.91 7.61 7.61 0 011-3.94A8.1 8.1 0 014 1.05 7.62 7.62 0 017.88 0a7.74 7.74 0 013 .6 9.26 9.26 0 012.51 1.69zm-5.51 12a6.29 6.29 0 003.26-.88 6.62 6.62 0 002.4-2.36 6.24 6.24 0 00.91-3.27 6.12 6.12 0 00-.53-2.46 7.31 7.31 0 00-1.47-2.11 7.2 7.2 0 00-2.11-1.44 6.7 6.7 0 00-2.46-.47 6.5 6.5 0 00-3.27.88 6.67 6.67 0 00-2.36 2.39 6.08 6.08 0 00-.88 3.23 6 6 0 001 3.45l.14.25-.67 2.39 2.46-.64.25.14a6 6 0 003.33.92zm3.55-4.89l.1.07a1 1 0 01.28.18V10a1.87 1.87 0 01-.14.6 1.45 1.45 0 01-.56.59 1.25 1.25 0 01-.74.32 2.17 2.17 0 01-.95 0A5.61 5.61 0 018 11a7.75 7.75 0 01-3.25-2.84l-.07-.07a3.39 3.39 0 01-.78-2 2.23 2.23 0 01.64-1.59.75.75 0 01.53-.24h.42a.44.44 0 01.21.07c.07 0 .11.1.18.25L6.5 6a.46.46 0 010 .35 2.77 2.77 0 01-.42.65c-.1.11-.17.18-.17.25s0 .1.07.17a3.86 3.86 0 001.16 1.4 5.94 5.94 0 001.47.88c.18.11.32.11.43 0l.63-.78a.22.22 0 01.17-.14h.25c.11 0 .63.29 1.34.64z"/></symbol>
</svg>