<svg class="svg-sprites" id="skin-sprite" xmlns="http://www.w3.org/2000/svg" xmlns:xlink="http://www.w3.org/1999/xlink">
    <symbol viewBox="0 0 24 24" id="z-cart"><path d="M21.9 5.6s0-.1-.1-.1c0 0 0-.1-.1-.1l-3-4c-.1-.3-.4-.4-.7-.4H6c-.3 0-.6.1-.8.4l-3 4s0 .1-.1.1c0 0 0 .1-.1.1V20c0 .8.3 1.6.9 2.1.5.6 1.3.9 2.1.9h14c.8 0 1.6-.3 2.1-.9s.9-1.3.9-2.1V6c0-.1 0-.2-.1-.4zM6.5 3h11L19 5H5l1.5-2zm13.2 17.7c-.2.2-.4.3-.7.3H5c-.3 0-.5-.1-.7-.3-.2-.2-.3-.4-.3-.7V7h16v13c0 .3-.1.5-.3.7z"/><path d="M16 9c-.6 0-1 .4-1 1 0 .8-.3 1.6-.9 2.1-1.1 1.1-3.1 1.1-4.2 0-.6-.5-.9-1.3-.9-2.1 0-.6-.4-1-1-1s-1 .4-1 1c0 1.3.5 2.6 1.5 3.5.9 1 2.2 1.5 3.5 1.5s2.6-.5 3.5-1.5S17 11.3 17 10c0-.6-.4-1-1-1z"/></symbol>
    <symbol viewBox="0 0 24 24" id="z-chat"><path d="M3 22c-.3 0-.5-.1-.7-.3-.3-.3-.4-.7-.2-1l1.8-5.3c-.6-1.2-.9-2.6-.9-3.9 0-1.8.5-3.5 1.4-5S6.7 3.8 8.3 3c1.3-.7 2.8-1 4.2-1h.5c2.4.1 4.6 1.1 6.2 2.8 1.7 1.7 2.6 3.8 2.8 6.2v.6c0 1.5-.3 2.9-1 4.3-.8 1.6-2 2.9-3.5 3.8-1.5.9-3.2 1.4-5 1.4-1.3 0-2.6-.3-3.8-.8l-5.3 1.8c-.2-.1-.3-.1-.4-.1zm9.5-18c-1.2 0-2.3.3-3.3.8-1.3.6-2.3 1.6-3 2.8S5 10.1 5 11.5c0 1.2.3 2.3.8 3.3.1.2.1.5.1.8l-1.3 3.8 3.8-1.3c.3-.1.5-.1.8.1 1 .5 2.2.8 3.3.8 1.4 0 2.8-.4 3.9-1.1 1.2-.7 2.1-1.8 2.8-3 .5-1 .8-2.2.8-3.4V11c-.1-1.8-.9-3.5-2.2-4.8-1.3-1.3-3-2.1-4.9-2.2h-.4z"/></symbol>
    <symbol viewBox="0 0 17 18" id="z-search"><path d="M11.571 7.929c0 2.48-2.019 4.5-4.5 4.5a4.505 4.505 0 01-4.5-4.5c0-2.481 2.02-4.5 4.5-4.5 2.481 0 4.5 2.019 4.5 4.5zm5.143 8.357c0-.342-.14-.673-.371-.904l-3.446-3.446a7.055 7.055 0 001.246-4.007A7.069 7.069 0 007.07.857 7.069 7.069 0 000 7.93 7.069 7.069 0 007.071 15a7.055 7.055 0 004.008-1.245l3.446 3.435c.23.24.562.381.904.381.703 0 1.285-.582 1.285-1.285z"/></symbol>
    <symbol viewBox="0 0 24 24" id="z-user"><path d="M20 22c-.6 0-1-.4-1-1v-2c0-.8-.3-1.6-.9-2.1-.5-.6-1.3-.9-2.1-.9H8c-.8 0-1.6.3-2.1.9-.6.5-.9 1.3-.9 2.1v2c0 .6-.4 1-1 1s-1-.4-1-1v-2c0-1.3.5-2.6 1.5-3.5.9-1 2.2-1.5 3.5-1.5h8c1.3 0 2.6.5 3.5 1.5.9.9 1.5 2.2 1.5 3.5v2c0 .6-.4 1-1 1zm-8-10c-2.8 0-5-2.2-5-5s2.2-5 5-5 5 2.2 5 5-2.2 5-5 5zm0-8c-1.7 0-3 1.3-3 3s1.3 3 3 3 3-1.3 3-3-1.3-3-3-3z"/></symbol>
</svg>