<svg class="svg-sprites" id="skin-sprite" xmlns="http://www.w3.org/2000/svg" xmlns:xlink="http://www.w3.org/1999/xlink">
    <symbol viewBox="0 0 24 24" id="z-cart"><path d="M6 2L3 6v14a2 2 0 002 2h14a2 2 0 002-2V6l-3-4H6zM3 6h18m-5 4a4 4 0 11-8 0" stroke-width="2" stroke-linecap="round" stroke-linejoin="round"/></symbol>
    <symbol viewBox="0 0 24 24" id="z-chat"><path d="M21 11.5a8.38 8.38 0 01-.9 3.8 8.5 8.5 0 01-7.6 4.7 8.38 8.38 0 01-3.8-.9L3 21l1.9-5.7a8.38 8.38 0 01-.9-3.8 8.5 8.5 0 014.7-7.6 8.38 8.38 0 013.8-.9h.5a8.48 8.48 0 018 8v.5z" stroke-width="2" stroke-linecap="round" stroke-linejoin="round"/></symbol>
    <symbol viewBox="0 0 17 18" id="z-search"><path d="M11.571 7.929c0 2.48-2.019 4.5-4.5 4.5a4.505 4.505 0 01-4.5-4.5c0-2.481 2.02-4.5 4.5-4.5 2.481 0 4.5 2.019 4.5 4.5zm5.143 8.357c0-.342-.14-.673-.371-.904l-3.446-3.446a7.055 7.055 0 001.246-4.007A7.069 7.069 0 007.07.857 7.069 7.069 0 000 7.93 7.069 7.069 0 007.071 15a7.055 7.055 0 004.008-1.245l3.446 3.435c.23.24.562.381.904.381.703 0 1.285-.582 1.285-1.285z"/></symbol>
    <symbol viewBox="0 0 24 24" id="z-user"><path d="M20 21v-2a4 4 0 00-4-4H8a4 4 0 00-4 4v2m8-10a4 4 0 100-8 4 4 0 000 8z" stroke-width="2" stroke-linecap="round" stroke-linejoin="round"/></symbol>
</svg>