<!-- SVG Sprite -->
<svg id="svg-sprite" class="svg-sprites">
    <!-- Gradients -->
    <defs>
        <!-- Horizontais -->
        <linearGradient id="color1_h" x1="0%" y1="0%" x2="100%" y2="0%"><stop offset="0%" stop-color="@bg(1)" /><stop offset="100%" stop-color="@bg(1:hover)" /></linearGradient>
        <linearGradient id="color2_h" x1="0%" y1="0%" x2="100%" y2="0%"><stop offset="0%" stop-color="@bg(2)" /><stop offset="100%" stop-color="@bg(2:hover)" /></linearGradient>
        <linearGradient id="color3_h" x1="0%" y1="0%" x2="100%" y2="0%"><stop offset="0%" stop-color="@bg(3)" /><stop offset="100%" stop-color="@bg(3:hover)" /></linearGradient>
        <linearGradient id="button_h" x1="0%" y1="0%" x2="100%" y2="0%"><stop offset="0%" stop-color="@button(bg)" /><stop offset="100%" stop-color="@button(bg:hover)" /></linearGradient>
        <linearGradient id="timer__gradient" x1="0%" y1="0%" x2="100%" y2="0%"><stop offset="0%" stop-color="@bg(1)" /><stop offset="100%" stop-color="@bg(2)" /></linearGradient>
        <!-- Verticais -->
        <linearGradient id="color1_v" x1="0%" y1="0%" x2="0%" y2="100%"><stop offset="0%" stop-color="@bg(1)" /><stop offset="100%" stop-color="@bg(1:hover)" /></linearGradient>
        <linearGradient id="color2_v" x1="0%" y1="0%" x2="0%" y2="100%"><stop offset="0%" stop-color="@bg(2)" /><stop offset="100%" stop-color="@bg(2:hover)" /></linearGradient>
        <linearGradient id="color3_v" x1="0%" y1="0%" x2="0%" y2="100%"><stop offset="0%" stop-color="@bg(3)" /><stop offset="100%" stop-color="@bg(3:hover)" /></linearGradient>
        <linearGradient id="button_v" x1="0%" y1="0%" x2="0%" y2="100%"><stop offset="0%" stop-color="@button(bg)" /><stop offset="100%" stop-color="@button(bg:hover)" /></linearGradient>
    </defs>
    <!--
	Ícones Obrigatórios
	* É possível alterá-los, porém não altere o ID
	-->
    <symbol id="i-play" 		viewBox="0 0 16 16"><path d="M2.9,1C1.3,0.2,0,0.9,0,2.4v11.2c0,1.5,1.3,2.1,2.9,1.4l11.9-5.6c1.6-0.8,1.6-2,0-2.7L2.9,1z"/></symbol>
    <symbol id="i-list" 		viewBox="0 0 16 16"><path d="M14.4,3.2H1.6C0.7,3.2,0,2.5,0,1.6v0C0,0.7,0.7,0,1.6,0l12.8,0C15.3,0,16,0.7,16,1.6v0 C16,2.5,15.3,3.2,14.4,3.2z M16,14.4L16,14.4c0-0.9-0.7-1.6-1.6-1.6H1.6c-0.9,0-1.6,0.7-1.6,1.6v0C0,15.3,0.7,16,1.6,16h12.8 C15.3,16,16,15.3,16,14.4z M16,8L16,8c0-0.9-0.7-1.6-1.6-1.6H1.6C0.7,6.4,0,7.1,0,8v0c0,0.9,0.7,1.6,1.6,1.6h12.8 C15.3,9.6,16,8.9,16,8z"/></symbol>
    <symbol id="i-grid" 		viewBox="0 0 16 16"><path d="M3.2,1.6c0,0.9-0.7,1.6-1.6,1.6S0,2.5,0,1.6S0.7,0,1.6,0S3.2,0.7,3.2,1.6z M8,0 C7.1,0,6.4,0.7,6.4,1.6S7.1,3.2,8,3.2s1.6-0.7,1.6-1.6S8.9,0,8,0z M14.4,0c-0.9,0-1.6,0.7-1.6,1.6s0.7,1.6,1.6,1.6S16,2.5,16,1.6 S15.3,0,14.4,0z M1.6,6.4C0.7,6.4,0,7.1,0,8s0.7,1.6,1.6,1.6S3.2,8.9,3.2,8S2.5,6.4,1.6,6.4z M8,6.4C7.1,6.4,6.4,7.1,6.4,8 S7.1,9.6,8,9.6S9.6,8.9,9.6,8S8.9,6.4,8,6.4z M14.4,6.4c-0.9,0-1.6,0.7-1.6,1.6s0.7,1.6,1.6,1.6S16,8.9,16,8S15.3,6.4,14.4,6.4z M1.6,12.8c-0.9,0-1.6,0.7-1.6,1.6S0.7,16,1.6,16s1.6-0.7,1.6-1.6S2.5,12.8,1.6,12.8z M8,12.8c-0.9,0-1.6,0.7-1.6,1.6S7.1,16,8,16 s1.6-0.7,1.6-1.6S8.9,12.8,8,12.8z M14.4,12.8c-0.9,0-1.6,0.7-1.6,1.6s0.7,1.6,1.6,1.6s1.6-0.7,1.6-1.6S15.3,12.8,14.4,12.8z"/></symbol>
    <symbol id="i-success"      viewBox="0 0 16 16"><path d="M8,0C3.6,0,0,3.6,0,8c0,4.4,3.6,8,8,8c4.4,0,8-3.6,8-8S12.4,0,8,0z M7.4,12.7l-1-0.7l0,0L2.9,9.5l0.7-1 L7.1,11l4.7-6.5l1,0.7L7.4,12.7z"/></symbol>
    <symbol id="img-truck" 		viewBox="0 0 16 16"><path d="M1.1,12L8,16l6.9-4V4L8,0L1.1,4V12z M7.5,14.6l-2.3-1.3V7l2.3,1.3V14.6z M14,11.5l-5.5,3.2V8.3 L14,5.1V11.5z M13.5,4.3L8,7.5L5.7,6.1l5.3-3.4L13.5,4.3z M8,1.1l2,1.2L4.8,5.6L2.5,4.3L8,1.1z M2,5.1l2.3,1.3v6.4L2,11.5 C2,11.5,2,5.1,2,5.1z M13.2,8.5L10.5,10v2.4l2.7-1.5V8.5z"/></symbol>
    <symbol id="img-cupon" 		viewBox="0 0 16 16"><path d="M16,0.6C16,0.3,15.8,0,15.4,0H7.5C7.4,0,7.2,0.1,7.1,0.2L0.7,6.5C0.3,6.9,0,7.5,0,8.1 c0,0.6,0.2,1.2,0.7,1.6l5.6,5.6c0.4,0.4,1,0.7,1.6,0.7s1.2-0.2,1.6-0.7l6.4-6.5C16,8.8,16,8.6,16,8.4V0.6z M7.2,14.4L1.6,8.8 C1.4,8.6,1.3,8.4,1.3,8.1c0-0.3,0.1-0.5,0.3-0.7l0.3-0.3l7,7l-0.3,0.3C8.2,14.8,7.5,14.8,7.2,14.4z M9.7,13.3l-7-7l5-5h7v6.9 L9.7,13.3z M13.2,4.4c0-1-0.8-1.8-1.7-1.8S9.7,3.4,9.7,4.4s0.8,1.8,1.7,1.8S13.2,5.4,13.2,4.4z M11.4,4.9c-0.3,0-0.6-0.2-0.6-0.6 s0.2-0.6,0.6-0.6c0.3,0,0.6,0.2,0.6,0.6S11.7,4.9,11.4,4.9z"/></symbol>
    <symbol id="img-os-new" 	viewBox="0 0 16 16"><path d="M13.5,15.9c0,0.1-0.1,0.1-0.1,0.1c-0.1,0-0.1,0-0.2,0c0,0-0.1,0-0.1,0l-0.7-0.7l-0.7,0.7 c-0.1,0.1-0.2,0.1-0.3,0l-0.7-0.7l-0.7,0.7c-0.1,0.1-0.2,0.1-0.3,0l-0.7-0.7l-0.7,0.7c-0.1,0.1-0.2,0.1-0.3,0l-0.7-0.7l-0.7,0.7 c-0.1,0.1-0.2,0.1-0.3,0l-0.7-0.7l-0.7,0.7c-0.1,0.1-0.2,0.1-0.3,0l-0.7-0.7l-0.7,0.7c0,0,0,0-0.1,0c-0.1,0-0.1,0-0.2,0 c-0.1,0-0.1-0.1-0.1-0.1c0,0,0-0.1,0-0.1V2.2c0,0,0,0,0,0c0,0,0,0,0,0c0-0.4,0.3-0.7,0.7-0.7c0,0,0,0,0,0h2.3V2H3.2c0,0,0,0,0,0 C3.1,2,3,2.1,3,2.2c0,0,0,0,0,0c0,0,0,0,0,0v13l0.5-0.5c0,0,0.1-0.1,0.2-0.1s0.1,0,0.2,0.1l0.7,0.7l0.7-0.7c0,0,0.1-0.1,0.2-0.1 c0.1,0,0.1,0,0.2,0.1l0.7,0.7L7,14.8c0,0,0.1-0.1,0.2-0.1c0.1,0,0.1,0,0.2,0.1L8,15.5l0.7-0.7c0,0,0.1-0.1,0.2-0.1 c0.1,0,0.1,0,0.2,0.1l0.7,0.7l0.7-0.7c0,0,0.1-0.1,0.2-0.1c0.1,0,0.1,0,0.2,0.1l0.7,0.7l0.7-0.7c0,0,0.1-0.1,0.2-0.1 c0.1,0,0.1,0,0.2,0.1l0.5,0.5v-13C13,2.1,12.9,2,12.8,2h-2.3V1.6h2.3c0.4,0,0.7,0.3,0.7,0.7L13.5,15.9 C13.5,15.8,13.5,15.8,13.5,15.9z M10.2,10.1c-0.2,0-0.4-0.3-0.4-0.7c0-0.4,0.2-0.7,0.4-0.7s0.4,0.3,0.4,0.7 C10.6,9.8,10.4,10.1,10.2,10.1z M6.9,11c0,0.6,0.5,1.1,1.1,1.1c0.6,0,1.1-0.5,1.1-1.1c0-0.1,0.1-0.2,0.2-0.2c0.1,0,0.2,0.1,0.2,0.2 c0,0.8-0.7,1.5-1.5,1.5S6.5,11.8,6.5,11c0-0.1,0.1-0.2,0.2-0.2C6.8,10.7,6.9,10.8,6.9,11z M6.3,1.5l0.3-0.3l1.1,1.1L10,0l0.3,0.3 L7.8,3.1L6.3,1.5z M5.8,10.1c-0.2,0-0.4-0.3-0.4-0.7c0-0.4,0.2-0.7,0.4-0.7s0.4,0.3,0.4,0.7C6.3,9.8,6.1,10.1,5.8,10.1z"/></symbol>
    <symbol id="img-os-ok" 		viewBox="0 0 16 16"><path d="M15.7,15.5H0.3c-0.2,0-0.3-0.1-0.3-0.3v-10c0,0,0,0,0,0v0c0,0,0,0,0,0c0,0,0,0,0-0.1l1.8-4.5c0,0,0,0,0,0 c0-0.1,0.1-0.2,0.2-0.2c0,0,0,0,0,0c0,0,0,0,0,0h11.8c0,0,0,0,0,0c0,0,0,0,0,0c0.1,0,0.2,0.1,0.2,0.2c0,0,0,0,0,0L16,5.1 c0,0,0,0,0,0.1c0,0,0,0,0,0v0c0,0,0,0,0,0v10C16,15.4,15.9,15.5,15.7,15.5z M2.3,1L0.7,4.9h5.6L6.8,1C6.8,1,2.3,1,2.3,1z M7.7,1H7.4 L7,4.9h0.7V1z M8.6,1H8.3v3.9H9L8.6,1z M9.1,5.5H6.9v0.7l1-0.3c0,0,0,0,0,0c0,0,0,0,0.1,0c0,0,0,0,0.1,0c0,0,0,0,0,0l1,0.3L9.1,5.5 L9.1,5.5z M13.7,1H9.2l0.4,3.9h5.6L13.7,1z M15.4,5.5H9.7v1.1c0,0,0,0,0,0c0,0,0,0,0,0c0,0,0,0,0,0c0,0.1-0.1,0.1-0.1,0.1 c0,0,0,0,0,0c0,0-0.1,0-0.2,0c0,0-0.1,0-0.1,0L8,6.5L6.7,6.9c0,0-0.1,0-0.1,0c-0.1,0-0.1,0-0.2,0c0,0,0,0,0,0c0,0-0.1-0.1-0.1-0.1 c0,0,0,0,0,0c0,0,0,0,0,0c0,0,0,0,0,0V5.5H0.6V15h14.8h0V5.5z M11,10.2c-0.3,0-0.6-0.4-0.6-0.9s0.3-0.9,0.6-0.9 c0.3,0,0.6,0.4,0.6,0.9S11.3,10.2,11,10.2z M8,13.5c-1.1,0-2.1-0.9-2.1-2.1c0-0.2,0.1-0.3,0.3-0.3c0.2,0,0.3,0.1,0.3,0.3 c0,0.8,0.7,1.5,1.5,1.5s1.5-0.7,1.5-1.5c0-0.2,0.1-0.3,0.3-0.3s0.3,0.1,0.3,0.3C10.1,12.6,9.1,13.5,8,13.5z M5,10.2 c-0.3,0-0.6-0.4-0.6-0.9S4.7,8.5,5,8.5c0.3,0,0.6,0.4,0.6,0.9S5.4,10.2,5,10.2z"/></symbol>
    <symbol id="img-os-sent" 	viewBox="0 0 16 16"><path d="M8,16C6.2,16,2.4,8.3,2.4,5.6C2.4,2.5,4.9,0,8,0s5.6,2.5,5.6,5.6C13.6,8.3,9.8,16,8,16z M8,0.5 c-2.8,0-5.1,2.3-5.1,5.1c0,2.9,3.8,9.9,5.1,9.9c1.2,0,5.1-7,5.1-9.9C13.1,2.8,10.8,0.5,8,0.5z M10.4,6.1c-0.3,0-0.5-0.3-0.5-0.7 c0-0.4,0.2-0.7,0.5-0.7s0.5,0.3,0.5,0.7C10.9,5.7,10.7,6.1,10.4,6.1z M8,8.7C7.1,8.7,6.3,8,6.3,7c0-0.1,0.1-0.2,0.2-0.2 c0.1,0,0.2,0.1,0.2,0.2c0,0.7,0.5,1.2,1.2,1.2S9.2,7.7,9.2,7c0-0.1,0.1-0.2,0.2-0.2S9.7,6.9,9.7,7C9.7,8,8.9,8.7,8,8.7z M5.6,6.1 c-0.3,0-0.5-0.3-0.5-0.7c0-0.4,0.2-0.7,0.5-0.7s0.5,0.3,0.5,0.7C6.1,5.7,5.8,6.1,5.6,6.1z"/></symbol>
    <symbol id="img-os-hold" 	viewBox="0 0 16 16"><path d="M13.1,15.9c0,0-0.1,0.1-0.1,0.1c0,0-0.1,0-0.2,0c0,0,0,0-0.1,0l-0.7-0.7l-0.7,0.7c-0.1,0.1-0.2,0.1-0.3,0 l-0.7-0.7l-0.7,0.7c-0.1,0.1-0.2,0.1-0.3,0l-0.7-0.7l-0.7,0.7c-0.1,0.1-0.2,0.1-0.3,0l-0.7-0.7l-0.7,0.7c-0.1,0.1-0.2,0.1-0.3,0 l-0.7-0.7l-0.7,0.7c-0.1,0.1-0.2,0.1-0.3,0l-0.7-0.7l-0.7,0.7c0,0,0,0-0.1,0c-0.1,0-0.1,0-0.2,0c0,0-0.1-0.1-0.1-0.1 c0,0,0-0.1,0-0.1V3.2c0,0,0,0,0,0c0,0,0,0,0,0c0-0.3,0.3-0.6,0.6-0.6c0,0,0,0,0,0h2.1V3H3.5c0,0,0,0,0,0C3.4,3,3.3,3.1,3.3,3.2 c0,0,0,0,0,0c0,0,0,0,0,0v12.1l0.5-0.5c0,0,0.1-0.1,0.1-0.1s0.1,0,0.1,0.1l0.7,0.7l0.7-0.7c0,0,0.1-0.1,0.1-0.1c0.1,0,0.1,0,0.1,0.1 l0.7,0.7L7,14.8c0,0,0.1-0.1,0.1-0.1c0.1,0,0.1,0,0.1,0.1L8,15.5l0.7-0.7c0,0,0.1-0.1,0.1-0.1c0.1,0,0.1,0,0.1,0.1l0.7,0.7l0.7-0.7 c0,0,0.1-0.1,0.1-0.1c0.1,0,0.1,0,0.1,0.1l0.7,0.7l0.7-0.7c0,0,0.1-0.1,0.1-0.1c0.1,0,0.1,0,0.1,0.1l0.5,0.5V3.2 c0-0.1-0.1-0.2-0.2-0.2h-2.1V2.6h2.1c0.3,0,0.6,0.3,0.6,0.6L13.1,15.9C13.1,15.8,13.1,15.9,13.1,15.9z M9.8,1.3l0.9-1H9.9V0h1.3v0.2 l-0.9,1h0.9v0.3H9.8L9.8,1.3L9.8,1.3z M10.9,9.8c0.1,0,0.2,0.1,0.2,0.2s-0.1,0.2-0.2,0.2H9.8c-0.1,0-0.2-0.1-0.2-0.2 c0-0.1,0.1-0.2,0.2-0.2H10.9z M9.8,12.1c0,0.1-0.1,0.2-0.2,0.2H6.4c-0.1,0-0.2-0.1-0.2-0.2c0-0.1,0.1-0.2,0.2-0.2h3.2 C9.7,11.9,9.8,12,9.8,12.1z M7,3.4l1.5-1.8H7V1.1h2.2v0.4L7.7,3.4h1.5v0.5H7V3.4z M6.2,10.2H5.1c-0.1,0-0.2-0.1-0.2-0.2 c0-0.1,0.1-0.2,0.2-0.2h1.1c0.1,0,0.2,0.1,0.2,0.2C6.4,10.1,6.3,10.2,6.2,10.2z"/></symbol>
    <symbol id="img-os-cancel"	viewBox="0 0 16 16"><path d="M14,15.9c0,0.1-0.1,0.1-0.1,0.1c-0.1,0-0.1,0-0.2,0c0,0-0.1,0-0.1-0.1l-0.8-0.8l-0.8,0.8 c-0.1,0.1-0.2,0.1-0.3,0l-0.8-0.8l-0.8,0.8C10,16,9.9,16,9.8,15.9L9,15.1l-0.8,0.8c-0.1,0.1-0.2,0.1-0.3,0L7,15.1l-0.8,0.8 C6.1,16,6,16,5.9,15.9l-0.8-0.8l-0.8,0.8C4.2,16,4,16,3.9,15.9l-0.8-0.8l-0.8,0.8c0,0,0,0-0.1,0.1c-0.1,0-0.1,0-0.2,0 C2,16,2,15.9,2,15.9c0,0,0-0.1,0-0.1v-15c0,0,0,0,0,0c0,0,0,0,0,0C1.9,0.3,2.3,0,2.7,0c0,0,0,0,0,0h10.7c0.4,0,0.7,0.3,0.7,0.7 L14,15.9C14.1,15.8,14.1,15.8,14,15.9z M13.6,0.7c0-0.1-0.1-0.2-0.2-0.2H2.7c0,0,0,0,0,0c-0.1,0-0.2,0.1-0.2,0.2c0,0,0,0,0,0 c0,0,0,0,0,0v14.4L3,14.6c0,0,0.1-0.1,0.2-0.1c0.1,0,0.1,0,0.2,0.1l0.8,0.8l0.8-0.8c0,0,0.1-0.1,0.2-0.1c0.1,0,0.1,0,0.2,0.1 l0.8,0.8l0.8-0.8c0,0,0.1-0.1,0.2-0.1c0.1,0,0.1,0,0.2,0.1L8,15.4l0.8-0.8c0,0,0.1-0.1,0.2-0.1c0.1,0,0.1,0,0.2,0.1l0.8,0.8l0.8-0.8 c0,0,0.1-0.1,0.2-0.1c0.1,0,0.1,0,0.2,0.1l0.8,0.8l0.8-0.8c0,0,0.1-0.1,0.2-0.1c0.1,0,0.1,0,0.2,0.1l0.6,0.6L13.6,0.7L13.6,0.7z M7.6,9.3h0.8v0.9H7.6V9.3z M7.6,5.8h0.8v2.8H7.6V5.8z"/></symbol>
    <symbol id="img-bill" 		viewBox="0 0 16 16"><path d="M12.9,5.4H9.2V0.5C9.2,0.2,9,0,8.7,0h-7C1.4,0,1.2,0.2,1.2,0.5v13.5c0,0,0,0,0,0c0,1.1,0.9,1.9,1.9,1.9h7 c1.1,0,1.9-0.9,1.9-1.9v-2.9h2.3c0.3,0,0.5-0.2,0.5-0.5V7.3C14.8,6.2,13.9,5.4,12.9,5.4z M3.1,14.9c-0.5,0-0.9-0.4-0.9-0.9 c0,0,0,0,0,0v-13h5.9v13c0,0.3,0.1,0.6,0.2,0.9H3.1z M11,7.3C11,7.3,11,7.3,11,7.3l0,6.8c0,0.5-0.4,0.9-0.9,0.9 c-0.5,0-0.9-0.4-0.9-0.9V6.4h2C11,6.7,11,7,11,7.3z M13.8,10.2H12V7.3c0,0,0,0,0,0c0-0.5,0.4-0.9,0.9-0.9c0.5,0,0.9,0.4,0.9,0.9 V10.2z M6.5,3.1H3.9c-0.3,0-0.5,0.2-0.5,0.5c0,0.3,0.2,0.5,0.5,0.5h2.5C6.8,4.1,7,3.9,7,3.6C7,3.3,6.8,3.1,6.5,3.1z M6.5,7H3.9 C3.6,7,3.4,7.2,3.4,7.5c0,0.3,0.2,0.5,0.5,0.5h2.5C6.8,8.1,7,7.8,7,7.5C7,7.2,6.8,7,6.5,7z M6.5,10.9H3.9c-0.3,0-0.5,0.2-0.5,0.5 c0,0.3,0.2,0.5,0.5,0.5h2.5C6.8,12,7,11.8,7,11.5C7,11.2,6.8,10.9,6.5,10.9z"/></symbol>
    <symbol id="img-track" 		viewBox="0 0 16 16"><path d="M6.6,5.4C6.8,5.3,6.9,5,6.8,4.7C6.7,4.5,6.4,4.4,6.1,4.5C4.4,5.4,3.7,7.4,4.1,9c0.5,1.9,2.2,3,3.8,3 c0.8,0,1.6-0.2,2.2-0.6c1.4-0.9,2.2-2.6,1.7-4.5c-0.1-0.3-0.4-0.4-0.6-0.3c-0.3,0.1-0.4,0.4-0.3,0.6c0.2,0.5,0.1,1.1,0,1.7 c-0.4,1.4-1.8,2.3-3.2,2.1c-1.1-0.1-2.2-1-2.5-2.1C4.7,7.3,5.6,5.9,6.6,5.4z M13.8,2.5c-0.1-0.2-0.2-0.3-0.3-0.4C12,0.8,10,0,7.9,0 c0,0-0.1,0-0.1,0C7.6,0.1,7.5,0.3,7.5,0.5c0,2.5,0,5,0,7.4c0,0.2,0.1,0.4,0.3,0.5c0.2,0.1,0.4,0,0.6-0.1l5.3-5.3 C13.8,2.9,13.8,2.7,13.8,2.5z M14.8,3.8c-0.1-0.2-0.5-0.3-0.7-0.1c-0.2,0.1-0.3,0.5-0.1,0.7C14.7,5.5,15,7,15,8.4 c-0.2,2.8-2.1,5.4-4.9,6.3c-3,0.9-6.8-0.3-8.4-3.7C1,9.6,0.9,8.1,1.1,6.7c0.6-2.9,2.8-4.9,5.2-5.4c0.1,0,0.2-0.1,0.3-0.2 c0.2-0.2,0.2-0.5,0-0.7C6.6,0.2,6.3,0.1,6.1,0.2C4.2,0.7,1.9,2,0.6,4.8c-1,2.2-1.4,6.8,2.6,9.7c1.2,0.9,2.6,1.4,4.1,1.5 c2.8,0.2,5.7-1.1,7.4-3.7C16,10.3,16.8,6.9,14.8,3.8z"/></symbol>
    <symbol id="img-facebook" 	viewBox="0 0 16 16"><path d="M9.4,16V8.7H12l0.4-2.8H9.4V4c0-0.8,0.2-1.4,1.5-1.4h1.6V0.1c-0.3,0-1.3-0.1-2.4-0.1 c-2.4,0-4,1.3-4,3.7v2.1H3.5v2.8h2.7V16H9.4L9.4,16z"/></symbol>
    <symbol id="img-twitter" 	viewBox="0 0 20 16"><path d="M9.9,5c0,0-5,0-8.5-4.2c0,0-1.9,2.9,1.3,5.4c0,0-1,0-1.9-0.5c0,0-0.2,3,3.2,4c0,0-1,0.3-1.8,0 c0,0,0.5,2.5,3.8,2.8c0,0-2.6,2.1-6.1,1.7c0,0,2.8,1.9,6,1.8C18.1,15.6,18,4,18,4s1.6-1.3,2-2.1c0,0-1.6,0.6-2.3,0.6 c0,0,1.3-0.9,1.8-2.2c0,0-1.8,0.9-2.6,0.9c0,0-1-1.3-3-1.3C11.9,0,9.3,1.6,9.9,5z"/></symbol>
    <symbol id="img-googleplus" viewBox="0 0 25 16"><path d="M21.2,9.9v4.4h-2.9V9.9h-3.9V7.1h3.8V2.9h2.9v4.2H25v2.8L21.2,9.9L21.2,9.9z M6.7,16C6.2,16,0.1,16.1,0,8.6V7.6 C0,6.8-0.1,0,6.4,0c3.7,0,5.7,1.8,6.1,5.2H9.5C9.2,3.4,8.2,2.6,6.6,2.6c-4.1,0-3.3,5.9-3.3,5.9c0,1.6,0.3,2.9,0.9,3.7 c1.2,1.7,4.2,1.5,5.3,0.5V10H6.6V7.6h6.1v6.2C11.5,15.2,9.2,16,6.7,16z"/></symbol>
    <symbol id="img-linkedin" 	viewBox="0 0 16 16"><path d="M14.9,16H1.1C0.5,16,0,15.5,0,14.9V1.1C0,0.5,0.5,0,1.1,0h13.8C15.5,0,16,0.5,16,1.1v13.8 C16,15.5,15.5,16,14.9,16z M2.3,13.7h2.4V6H2.3V13.7z M3.6,2.2c-0.7,0-1.3,0.6-1.3,1.3s0.6,1.3,1.3,1.3c0.7,0,1.3-0.6,1.3-1.3 S4.3,2.2,3.6,2.2z M13.7,10.2c0-3.7-1-4.3-2.8-4.3c-1.4,0-2.1,0.7-2.3,0.9V6H6.3v7.7h2.3V9.9c0-1.4,0.6-2,1.5-2 c0.8,0,1.2,0.7,1.2,2.3v3.5h2.4L13.7,10.2L13.7,10.2z"/></symbol>
    <symbol id="img-pinterest" 	viewBox="0 0 16 16"><path d="M8,16c-0.9,0-1.7-0.1-2.4-0.4c0.2-0.2,0.8-1.1,1-1.8c0.2-0.8,0.6-2.2,0.6-2.2s0.4,0.9,1.8,0.9 s4.1-1.4,4.1-5c0-1.7-1.4-4.5-5-4.5S3,5.5,3,7.8c0,2.3,1.7,3.1,1.7,3.1L5,9.8c0,0-0.7-0.6-0.7-2S5.3,4.4,8,4.4s3.3,2.1,3.3,3.3 s-0.6,3.6-2.6,3.6c-0.9,0-1.2-0.6-1.2-1.2s0.7-2.4,0.7-3S7.9,6,7.3,6S5.8,6.7,5.8,8c0,0.8,0.3,1.2,0.3,1.2s-1,4.1-1,4.9 c0,0.5,0,1.1,0.1,1.4C2.1,14.3,0,11.4,0,8c0-4.4,3.6-8,8-8s8,3.6,8,8S12.4,16,8,16z"/></symbol>
    <symbol id="img-whatsapp" 	viewBox="0 0 16 16"><path d="M8.1,15.6c-1.4,0-2.7-0.4-3.8-1L0,16l1.4-4.2c-0.7-1.2-1.1-2.6-1.1-4C0.3,3.5,3.8,0,8.1,0 C12.5,0,16,3.5,16,7.8C16,12.1,12.5,15.6,8.1,15.6z M8.1,1.2c-3.6,0-6.6,2.9-6.6,6.6c0,1.4,0.5,2.8,1.3,3.8L2,14.1l2.5-0.8 c1,0.7,2.3,1.1,3.6,1.1c3.6,0,6.6-2.9,6.6-6.6C14.7,4.2,11.8,1.2,8.1,1.2z M10.3,11.4c-2.3-0.1-5.9-2.9-6-5.4 C4.2,4.3,5.6,4.2,5.9,4.2c0.4,0,0.4,0.6,1,1.7c0.2,0.4-0.8,1.1-0.5,1.4c0.1,0.2,0.5,0.8,1.1,1.3c0.9,0.9,1.7,1,1.9,0.9 c0.4-0.1,0.5-0.8,1-0.9c0.2,0,1.8,0.7,1.8,0.9C12.2,10.9,11,11.5,10.3,11.4z"/></symbol>
    <symbol id="img-tumblr" 	viewBox="0 0 16 16"><path d="M3.4,4.4c0,0,3.1-1.2,3.1-4.4H9v4h2.9v2.8H9c0,0,0,4,0,4.9c0,2.1,2.8,1.2,2.8,1.2l0.8,2.2 c0,0-1.3,0.9-2.9,0.9c-1.6,0-4.4-1-4.4-4.4s0-4.8,0-4.8H3.4L3.4,4.4L3.4,4.4z"/></symbol>

    <!--
	Ícones opcionais
	* Caso exclua um destes sprites, lembre-se de apagar a chamada nas inserções
	-->
    <symbol id="i-menu"     viewBox="0 0 16 16"><path d="M14.4,3.2H1.6C0.7,3.2,0,2.5,0,1.6v0C0,0.7,0.7,0,1.6,0l12.8,0C15.3,0,16,0.7,16,1.6v0 C16,2.5,15.3,3.2,14.4,3.2z M16,14.4L16,14.4c0-0.9-0.7-1.6-1.6-1.6H1.6c-0.9,0-1.6,0.7-1.6,1.6v0C0,15.3,0.7,16,1.6,16h12.8 C15.3,16,16,15.3,16,14.4z M16,8L16,8c0-0.9-0.7-1.6-1.6-1.6H1.6C0.7,6.4,0,7.1,0,8v0c0,0.9,0.7,1.6,1.6,1.6h12.8 C15.3,9.6,16,8.9,16,8z"/></symbol>
    <symbol id="i-search"   viewBox="0 0 16 16"><path d="M6.9,13.9c1.7,0,3.3-0.6,4.5-1.6l3.6,3.6c0.2,0.2,0.6,0.2,0.9,0c0.2-0.2,0.2-0.6,0-0.9l-3.6-3.6 c1-1.2,1.6-2.8,1.6-4.5c0-3.8-3.1-6.9-6.9-6.9S0,3.1,0,6.9S3.1,13.9,6.9,13.9z M6.9,1.2c3.2,0,5.7,2.6,5.7,5.7c0,1.6-0.6,3-1.7,4.1 c0,0,0,0,0,0c0,0,0,0,0,0c-1,1-2.5,1.7-4.1,1.7c-3.2,0-5.7-2.6-5.7-5.7S3.8,1.2,6.9,1.2z"/></symbol>
    <symbol id="i-cart"     viewBox="0 0 16 16"><path d="M15.2,15.5l-0.9-11c0-0.2-0.2-0.4-0.4-0.4h-2V3.9C11.9,1.8,10.2,0,8,0S4.1,1.8,4.1,3.9v0.2h-2 c-0.2,0-0.4,0.2-0.4,0.4L0.8,15.6c0,0.1,0,0.2,0.1,0.3C1,16,1.1,16,1.2,16h13.7c0,0,0,0,0,0C15,16,15.2,15.8,15.2,15.5 C15.2,15.6,15.2,15.5,15.2,15.5z M4.9,3.9c0-1.7,1.4-3.1,3.1-3.1s3.1,1.4,3.1,3.1v0.2H4.9V3.9z M1.6,15.2L2.5,4.9h1.6v0.6 C3.8,5.7,3.7,5.9,3.7,6.2C3.7,6.7,4,7,4.5,7s0.8-0.4,0.8-0.8c0-0.3-0.2-0.6-0.4-0.7V4.9h6.3v0.6c-0.2,0.1-0.4,0.4-0.4,0.7 c0,0.4,0.4,0.8,0.8,0.8s0.8-0.4,0.8-0.8c0-0.3-0.2-0.6-0.4-0.7V4.9h1.6l0.9,10.3H1.6L1.6,15.2z"/></symbol>
    <symbol id="i-wish"     viewBox="0 0 16 16"><path d="M2,9.2C0.6,7.6,0,5.9,0,4.4C0,1.7,1.5,0,3.8,0C6,0,6.7,1.1,8,2.8C9.3,1.1,10,0,12.2,0 C14.5,0,16,1.7,16,4.4c0,1.5-0.6,3.2-2,4.8L8,16L2,9.2z"/></symbol>
    <symbol id="i-user"     viewBox="0 0 16 16">
        <path class="female" d="M8,0C6.2,0,3.7,1.2,3.7,3.9v1.5C3.1,5.4,2.7,6,2.7,6.6s0.5,1.1,1.1,1.2c-0.1,2.4-0.8,5.6-2.4,6 C1.6,15,2.6,16,3.4,16h9.3c0.5,0,1.8-0.6,2.3-2.2c-1.7-0.3-2.7-3.7-2.7-6c0.6-0.1,1.1-0.6,1.1-1.2s-0.5-1.1-1.1-1.2V3.9 C12.3,1.9,11.4,0,8,0z M8.7,13.3c0,0.6-1.5,0.5-1.5,0v-0.9c0.1,0.1,1.3,0.1,1.5,0V13.3z M12.6,6.6c0,0.3-0.2,0.6-0.6,0.6 c-0.1,0-0.5,0-0.5,0v1.4c0,1.8-1.4,3.2-3.2,3.2H7.6c-1.8,0-3.2-1.4-3.2-3.2V7.1l-0.5,0c-0.3,0-0.6-0.2-0.6-0.6S3.6,6,3.9,6l0.5,0 V4.3c2.9,0.6,3.7-1,4.7-1c1,0,1.6,1.8,1.6,1.8c0.8-0.4,0.8-0.8,0.8-1V6c0,0,0.5,0,0.5,0C12.4,6,12.6,6.3,12.6,6.6z M8,8.2 c0.3,0,0.5-0.2,0.5-0.4c0-0.2-0.2-0.4-0.5-0.4c-0.3,0-0.5,0.2-0.5,0.4C7.5,8,7.7,8.2,8,8.2z M10,6C9.7,6,9.4,6.3,9.4,6.6 S9.7,7.1,10,7.1c0.3,0,0.5-0.2,0.5-0.5S10.3,6,10,6z M6.6,6.6C6.6,6.3,6.3,6,6,6S5.5,6.3,5.5,6.6S5.7,7.1,6,7.1S6.6,6.9,6.6,6.6z M10.1,8.8c-0.2-0.1-0.4,0-0.4,0.2C9.3,9.6,8.7,10,8,10c-0.7,0-1.3-0.4-1.6-1C6.3,8.8,6.1,8.7,5.9,8.8C5.7,8.8,5.7,9,5.7,9.2 C6.2,10.1,7,10.7,8,10.7c1,0,1.8-0.6,2.3-1.4C10.3,9,10.3,8.8,10.1,8.8z"/>
        <path class="male" d="M8,0C6.2,0,3.7,1.2,3.7,3.9v1.5C3.1,5.4,2.7,6,2.7,6.6s0.5,1.1,1.1,1.2v0.7c0,1.8,1.2,3.3,2.9,3.8 v0.3c-2.8,0-3.8,3.4-3.8,3.4h10.5c0,0-1.2-3.4-3.8-3.4v-0.3c1.6-0.5,2.9-2,2.9-3.8V7.8c0.6-0.1,1.1-0.6,1.1-1.2s-0.5-1.1-1.1-1.2 V5.1c2-0.4,2.2-1.4,2.2-1.8C12.8,3.6,11.4,0,8,0z M8.7,13.3c0,0.6-1.5,0.5-1.5,0v-0.9c0.1,0.1,1.3,0.1,1.5,0V13.3z M12.6,6.6 c0,0.3-0.2,0.6-0.6,0.6c-0.1,0-0.5,0-0.5,0v1.4c0,1.8-1.4,3.2-3.2,3.2H7.6c-1.8,0-3.2-1.4-3.2-3.2V7.1l-0.5,0 c-0.3,0-0.6-0.2-0.6-0.6S3.6,6,3.9,6l0.5,0l0.8-2.2C6,4.3,7.8,5.5,11.6,5.2V6c0,0,0.5,0,0.5,0C12.4,6,12.6,6.3,12.6,6.6z M8,8.2 c0.3,0,0.5-0.2,0.5-0.4c0-0.2-0.2-0.4-0.5-0.4c-0.3,0-0.5,0.2-0.5,0.4C7.5,8,7.7,8.2,8,8.2z M10,6C9.7,6,9.4,6.3,9.4,6.6 S9.7,7.1,10,7.1c0.3,0,0.5-0.2,0.5-0.5S10.3,6,10,6z M6.6,6.6C6.6,6.3,6.3,6,6,6S5.5,6.3,5.5,6.6S5.7,7.1,6,7.1S6.6,6.9,6.6,6.6z M10.1,8.8c-0.2-0.1-0.4,0-0.4,0.2C9.3,9.6,8.7,10,8,10c-0.7,0-1.3-0.4-1.6-1C6.3,8.8,6.1,8.7,5.9,8.8C5.7,8.8,5.7,9,5.7,9.2 C6.2,10.1,7,10.7,8,10.7c1,0,1.8-0.6,2.3-1.4C10.3,9,10.3,8.8,10.1,8.8z"/>
    </symbol>

    <!-- Tema naturaloil -->
    <symbol viewBox="0 0 24 24" id="z-cart"><path d="M21.9 5.6s0-.1-.1-.1c0 0 0-.1-.1-.1l-3-4c-.1-.3-.4-.4-.7-.4H6c-.3 0-.6.1-.8.4l-3 4s0 .1-.1.1c0 0 0 .1-.1.1V20c0 .8.3 1.6.9 2.1.5.6 1.3.9 2.1.9h14c.8 0 1.6-.3 2.1-.9s.9-1.3.9-2.1V6c0-.1 0-.2-.1-.4zM6.5 3h11L19 5H5l1.5-2zm13.2 17.7c-.2.2-.4.3-.7.3H5c-.3 0-.5-.1-.7-.3-.2-.2-.3-.4-.3-.7V7h16v13c0 .3-.1.5-.3.7z"/><path d="M16 9c-.6 0-1 .4-1 1 0 .8-.3 1.6-.9 2.1-1.1 1.1-3.1 1.1-4.2 0-.6-.5-.9-1.3-.9-2.1 0-.6-.4-1-1-1s-1 .4-1 1c0 1.3.5 2.6 1.5 3.5.9 1 2.2 1.5 3.5 1.5s2.6-.5 3.5-1.5S17 11.3 17 10c0-.6-.4-1-1-1z"/></symbol>
    <symbol viewBox="0 0 24 24" id="z-chat"><path d="M3 22c-.3 0-.5-.1-.7-.3-.3-.3-.4-.7-.2-1l1.8-5.3c-.6-1.2-.9-2.6-.9-3.9 0-1.8.5-3.5 1.4-5S6.7 3.8 8.3 3c1.3-.7 2.8-1 4.2-1h.5c2.4.1 4.6 1.1 6.2 2.8 1.7 1.7 2.6 3.8 2.8 6.2v.6c0 1.5-.3 2.9-1 4.3-.8 1.6-2 2.9-3.5 3.8-1.5.9-3.2 1.4-5 1.4-1.3 0-2.6-.3-3.8-.8l-5.3 1.8c-.2-.1-.3-.1-.4-.1zm9.5-18c-1.2 0-2.3.3-3.3.8-1.3.6-2.3 1.6-3 2.8S5 10.1 5 11.5c0 1.2.3 2.3.8 3.3.1.2.1.5.1.8l-1.3 3.8 3.8-1.3c.3-.1.5-.1.8.1 1 .5 2.2.8 3.3.8 1.4 0 2.8-.4 3.9-1.1 1.2-.7 2.1-1.8 2.8-3 .5-1 .8-2.2.8-3.4V11c-.1-1.8-.9-3.5-2.2-4.8-1.3-1.3-3-2.1-4.9-2.2h-.4z"/></symbol>
    <symbol viewBox="0 0 17 18" id="z-search"><path d="M11.571 7.929c0 2.48-2.019 4.5-4.5 4.5a4.505 4.505 0 01-4.5-4.5c0-2.481 2.02-4.5 4.5-4.5 2.481 0 4.5 2.019 4.5 4.5zm5.143 8.357c0-.342-.14-.673-.371-.904l-3.446-3.446a7.055 7.055 0 001.246-4.007A7.069 7.069 0 007.07.857 7.069 7.069 0 000 7.93 7.069 7.069 0 007.071 15a7.055 7.055 0 004.008-1.245l3.446 3.435c.23.24.562.381.904.381.703 0 1.285-.582 1.285-1.285z"/></symbol>
    <symbol viewBox="0 0 24 24" id="z-user"><path d="M20 22c-.6 0-1-.4-1-1v-2c0-.8-.3-1.6-.9-2.1-.5-.6-1.3-.9-2.1-.9H8c-.8 0-1.6.3-2.1.9-.6.5-.9 1.3-.9 2.1v2c0 .6-.4 1-1 1s-1-.4-1-1v-2c0-1.3.5-2.6 1.5-3.5.9-1 2.2-1.5 3.5-1.5h8c1.3 0 2.6.5 3.5 1.5.9.9 1.5 2.2 1.5 3.5v2c0 .6-.4 1-1 1zm-8-10c-2.8 0-5-2.2-5-5s2.2-5 5-5 5 2.2 5 5-2.2 5-5 5zm0-8c-1.7 0-3 1.3-3 3s1.3 3 3 3 3-1.3 3-3-1.3-3-3-3z"/></symbol>
    <symbol viewBox="0 0 48 32" id="z-truck"><path d="M43.52 0H19.2c-2.304 0-4.224 1.767-4.48 4.123H5.76c-.512 0-.96.261-1.152.72l-4.48 8.965c-.064.065-.064.065-.064.13v.131H0v10.733c0 .72.576 1.308 1.28 1.308h5.888c0 3.272 2.56 5.89 5.76 5.89 3.2 0 5.76-2.618 5.76-5.89h12.544c0 3.272 2.56 5.89 5.76 5.89 3.2 0 5.76-2.618 5.76-5.89h3.968c.704 0 1.28-.588 1.28-1.308V4.58C48 2.029 46.016 0 43.52 0zM6.528 6.74h8.192v6.348H3.392L6.528 6.74zm1.216 16.687H2.56v-7.721h12.16v4.711c-.576-.196-1.216-.262-1.792-.262a5.74 5.74 0 00-5.184 3.272zm5.184 5.89c-1.792 0-3.2-1.44-3.2-3.272 0-1.832 1.408-3.272 3.2-3.272 1.792 0 3.2 1.44 3.2 3.272-.064 1.767-1.472 3.206-3.2 3.272zm24.064 0c-1.728-.066-3.136-1.505-3.2-3.272 0-1.832 1.408-3.272 3.2-3.272 1.792 0 3.2 1.44 3.2 3.272 0 1.832-1.408 3.272-3.2 3.272zm8.448-5.89h-3.264a5.737 5.737 0 00-7.744-2.617c-1.088.589-2.048 1.505-2.56 2.617h-13.76a7.017 7.017 0 00-.96-1.44c.064-.196.128-.392.128-.588V4.58c0-1.113.832-1.963 1.92-1.963h24.32c1.088 0 1.92.85 1.92 1.963v18.846z"/></symbol>
    <symbol viewBox="0 0 225.9 226" id="z-brasil"><path d="M225.8 78.9c-.7-8.8-4.6-13.6-13.2-15.7-.7-.2-1.4-.4-2.1-.4-1.8-.2-2.8-1.1-3.7-2.7-1-1.9-2.2-3.8-3.5-5.6-2.6-3.4-6-5.5-10.3-6-2.4-.3-4.7-.5-7.1-.6-1.3 0-2.2-.5-3.1-1.3-2.2-2-4.8-3.3-7.9-3.2-.5 0-1.2-.5-1.5-.9-1.7-1.9-3.6-3.5-6.1-3.6-2-.1-3.1-.9-4.4-2.3-3.3-3.4-7.6-4.5-11.1-2.5-2.2 1.3-4.1.4-6.3.5.6-.9 1-1.5 1.3-2.1 2.4-4.3 1.7-10-1.8-12.3-1.8-1.1-2.9-2.6-4-4.3-.9-1.3-1.7-2.6-2.7-3.7-5.3-6.1-12.4-6-17.6.1-.9 1-1.7 2.1-2.5 3.1-2.7-1.2-5.2-2.5-7.9-3.3-4.4-1.4-8.7.2-10.6 3.9-1.3 2.6-3.8 2.7-6.2 3.9.2-.7.2-1 .3-1.3.9-3.2 1-6.3-1.2-9.1-.3-.4-.3-1.1-.4-1.7-.5-2.9-1.8-5.3-4.5-6.7C82.8-1.4 77.2 0 73.9 4.3c-.5.7-1.6 1.3-2.4 1.3-2.3 0-4.7-.3-7-.5-2.6-.3-5.2-1.2-7.8-1-5.8.4-9.6 5.4-8.5 10.6.6 2.4 2.2 4.2 4 5.7.5.4 1 1 1.5 1.5-.2.2-.4.4-.5.6-.7-.5-1.6-.9-2.1-1.6-3.1-4.1-6.9-5.8-12-4.4-.4.1-.8.1-1.1.2-4 .9-8.1 1.5-11.9 2.7-5.2 1.7-7 6.1-5.3 11.3.2.5.2 1.1.1 1.6-.5 3.9-.6 7.7 2.3 10.9.2.2.4.6.3.9-.3 2.5-.6 5-1 7.7h-.7c-6.8-.4-11.2 3.7-14.5 8.7C4.7 64.4 3 68.8 1.1 73c-1.7 4-1.8 9.4 2.8 12.6.4.3.7 1.1.7 1.7.5 2.8 1.4 5.4 4 6.7 2.8 1.4 5.4 3 8.2 4.3 2.5 1.1 5.3 1.6 7.5 3.5.5.5 1.4.5 2.2.6 3.4.3 6.9.7 10.3.9 3.7.2 6.7-1.1 8.7-4.3.3-.6 1.2-.8 2-1.3.2 1 .4 1.5.5 2.1.8 3.6 2.5 6.6 6 8 2.3 1 4.7 1.6 7 2.4 1.7.6 3.4 1.2 5 2 2.7 1.3 4.9 3.7 8.1 3.8.3 0 .8.6.9 1 .5 1.9.7 3.8 1.3 5.6.6 1.7 1.2 3.8 2.5 4.9 1.7 1.5 4 2.5 6.2 3.1 2 .5 3.4 1.6 4.9 2.9-.2.3-.3.5-.5.7-2.7 3.8-3.4 7.9-2 12.4.2.6.2 1.3.2 1.9-.9 6.5 1.6 10.9 7.7 13.4.6.2 1 1 1.3 1.6.7 1.5 1.3 3.1 2 4.7.2.4.6.8.5 1.2-.3 3.2.8 5.8 2.5 7.9-2.6 2.6-5.2 5-7.5 7.6-.9 1-1.2 2.6-1.7 3.9-.3.8-.5 1.7-1.1 2.3-3.6 4.1-3.1 9.7 1.4 12.9 2.4 1.8 5 3.3 7.4 5.2 1.9 1.6 4 2.9 3 6.4-1.2 4.2.8 7.8 4 9.7 3.2 1.9 7.3 1.4 10.6-1.3 2.5-2 4.3-4.7 5.7-7.6.3-.6.7-1.2 1.2-1.5 2.2-1.1 3.8-2.8 5.1-4.8.3-.5.9-1.1 1.4-1.3 4-1.5 5.8-4.5 6.2-8.6.1-.8.5-1.7 1-2.2 2.4-2.4 4.2-5.2 4.8-8.5.7-3.7 1-7.5 1.5-11.5 3.2.6 5.8-1.4 8.5-2.9.6-.3 1.3-.6 1.9-.9 2-.8 4.1-1.3 6-2.4 1.9-1 3.5-1.1 5.5-.4 4.6 1.7 8.7.8 11.7-3.1 1.7-2.1 3-4.6 4.1-7.1.9-2.2 2.1-3.8 4.2-5.1 3.9-2.3 6.4-5.7 6.6-10.3.2-3.9 1.3-7.3 3.5-10.5l.6-1.2c1.2-2.5 2.1-5.1 1.7-8-.2-1.7 0-3.3 1.1-4.8.4-.5.4-1.2.7-1.8.2-.4.5-.9.9-1.1 3.5-1.4 4.9-4.4 5.9-7.7.4-1.5 1.1-2.7 2.6-3.4 1.8-.8 3.6-1.8 5.3-2.7 3.1-1.8 5.5-4.2 6.9-7.6 2.5-5.9 4-11.8 3.5-18.1zm-9.1 10.9c-.2.5-.3 1.2-.5 1.8-.8 2.9-2.4 5-5.1 6.4l-6.3 3.3c-1.8.9-2.8 2.2-3.5 4-.5 1.4-1 2.8-1.6 4.1-.4.8-1.2 1.3-1.8 1.9-.6-.7-1.3-1.4-1.9-2.1-.2-.2-.1-.6-.3-.8-.4-.5-.9-.9-1.4-1.4-.3.7-.8 1.3-.8 2 0 1.8.2 3.6.2 5.4 0 1.2-.2 2.6-.8 3.4-2 2.4-1.7 5.1-1.7 7.8 0 1.6-.4 3.2-.9 4.7-.3 1.1-1 2.1-1.6 3-1.8 2.8-2.8 5.9-2.8 9.2 0 3.2-1.3 5.6-4.1 7.2-2.9 1.6-4.8 4-6 7.2-.7 2-1.9 3.9-3 5.7-.8 1.3-2 1.7-3.6 1.1-4-1.6-7.8-1.4-11.6.8-1.5.9-3.4 1.2-5.1 1.8-.9.3-1.8.7-2.6 1.2-1.9 1.2-3.6 2.6-6.2 2.2-3.8-.6-7.7 4.4-7.2 8.1.4 3-.1 6.1-.6 9.2-.4 2.9-2.3 5-4.8 6.4-1.1.6-1.5 1.3-1.4 2.5.1.7.1 1.3.1 2 0 2.5-.1 2.5-2.4 3.2-.9.3-1.7 1-2.4 1.7s-1.2 1.6-1.6 2.5c-1.1 2.1-2.8 2.8-5.1 2.6-2.2-.2-2.6.3-2.3 2.5.1 1 .5 2.2.1 3-.9 1.6-2.3 3.1-3.6 4.5-.3.3-1.1.5-1.5.2-.3-.2-.6-1-.4-1.4.4-1.4.8-2.8 1.4-4.2 1.3-3.1 1-4-1.9-5.4-.9-.5-1.9-1-2.5-1.8-2.6-3.3-6-5.5-9.6-7.4-.5-.3-.9-.6-1.9-1.4 1-.7 1.8-1.1 2.5-1.7 1.4-1.2 2.2-2.6 1.8-4.5-.1-.3 0-.8.2-1 2.4-2.6 4.5-5.6 8.5-6.1 1.2-.2 2.4-.9 3.4-1.6 1.5-1 2.3-2.4 2-4.4-.1-.9.2-1.9.3-3-1.1-.1-2.3-.3-3.4-.4-.5-.1-1.1-.2-1.6-.4-3.2-1.1-3.8-3.2-1.6-5.7.9-1 2-1.9 3.3-3.1h-4c-2.4-.1-3.6-1.5-3.2-3.9.2-1 .6-1.9.8-2.8.6-2-.2-2.7-2.2-2.7-1.9 0-3.9-.4-5.7-1-1.7-.6-2-2.2-2-4 0-2 .1-4-.3-5.9-.6-2.3-.2-4.1 1.1-5.9 1-1.3 2-2.5 2.9-3.8 1.3-2 1.1-3.2-.7-4.7-2-1.7-3.9-3.6-6.1-5-1.4-.9-3.2-1.3-4.9-1.6-2.5-.5-2.7-.7-3.1-3.1-.2-1.2-.9-2.4-1.1-3.6-.2-2.1-.2-4.3-.1-6.4.1-1.5-.6-2.1-1.9-2.1-1.2 0-2.4.4-3.6.3-1.3-.1-2.7-.3-3.9-.8-3-1.5-5.5-3.8-9-4.5-2.2-.4-4.3-1.2-6.5-1.9-1.3-.4-2.2-1.3-2.3-2.6-.2-2.9-.3-5.9-.4-8.9-.1-.9-.2-1.9-.4-2.8-1.1.2-2.1.3-3.2.6-.5.1-.9.6-1.3 1-1.3 1.2-2.8 1.9-4.6 2-3.1.1-5.7 1.2-6.9 4.4-.2.4-1.1.8-1.6.8-3.1-.2-6.3-.4-9.4-.8-.5-.1-1.4-1.2-1.3-1.8.1-2.2.4-4.4.7-6.6 0-.4.3-.7.4-1.1-.1-.2-.2-.3-.3-.5-.8.4-1.8.7-2.4 1.3-1.2 1.2-2.1 2.7-3.2 4-1.4 1.7-1.7 1.6-2.9-.2-.5-.8-1.6-1.2-2.5-1.6-.6-.3-1.4-.1-2.1-.2-1.3-.1-2-.8-2-2.2v-1.5c0-3.2-.4-3.8-3.3-4.9-1.1-.4-1.5-1.1-1.2-2.2.2-.8.5-1.7.9-2.5 1.6-3.4 3.1-6.8 5-10.1.9-1.6 2.4-3 3.8-4.2 1.6-1.4 3.5-1.4 5.5-1 .4.1.8.1 1.2.1 4.8.5 6.5-1 6.5-5.9 0-.9 0-1.8-.1-2.6-.5-2.5-.1-4.7 1.3-6.9 1.3-2.1 1-3.1-1.2-4.7-1.5-1.1-2.7-2.2-2.5-4.3.1-1.2.4-1.8 1.6-2.1 1.4-.4 2.7-1 4-1.6v-.7c-1.1-.5-2.3-.9-3.3-1.6-.9-.6-1.7-1.3-2.6-2 .9-.5 1.8-1.2 2.8-1.4 3.7-.8 7.4-1.5 11.2-2.2.7-.1 1.6.4 2.2.8.7.5 1 1.5 1.7 2 1.2 1 2.6 2 4 2.9 1 .6 2.2 1 3.3 1.3 1 .2 2.2.5 3 .1 3.7-1.7 6.8-4.3 9.6-7.3.2-.2.3-.4.4-.7.1-.1 0-.3.1-.9H63c-1.1 0-1.4-.3-1.6-1.5-.2-1.3-.9-2.7-1.7-3.8-.8-1.1-2-1.9-3-2.8-1.1-1-1-1.7.4-2 1.3-.2 2.7 0 4 .2 2.7.4 5.4 1.2 8.1 1.3 2.3.1 4.7-.3 7-.7 1.8-.3 2.9-1.5 3.6-3.1.7-1.4 1.7-2.2 3.4-2 1 .2 1.6.6 1.6 1.7 0 1.9.1 3.8 1.8 5.1.3.2.2 1.1.1 1.5-.5 1.8-1.2 3.5-1.8 5.3-.9 2.6-.6 3.5 1.8 4.9 3.5 2 7.2 1.8 10.9.5 1.9-.7 3.8-1.5 5.7-2.2 1.5-.6 2.4-1.7 2.8-3.2.4-1.8 1-2.2 2.8-1.6 1 .4 2 .9 3 1.3 1.3.7 2.6 1.4 4 2 3.8 1.6 5.4 1.2 8-2.1 1.1-1.4 2.2-2.9 3.4-4.2 1.6-1.7 3.1-1.7 4.7 0 1.1 1.2 2 2.6 3 4 1.5 2.1 2.7 4.3 5.1 5.5.4.2.7 1.4.4 1.8-.5.9-1.2 1.7-2 2.2-1 .7-1.8 1.1-1.3 2.6.2.5-.3 1.4-.8 1.9-1.4 1.4-2.9 2.7-4.3 4.2-1.6 1.7-3.4 3.4-4.7 5.3-.8 1.2-1.1 2.8-1.2 4.3-.1 1.3.9 1.8 2 1.1 1.3-.8 2.5-1.8 3.6-2.8 4.1-3.7 10.6-5.4 16.2-4.1-.8 1.1-1.6 2.1-2.5 3.1-.6.8-.4 1.3.3 1.9 2.1 1.6 5.2 1 6.7-1.5.5-.8.8-1.8 1.1-2.7 1-3 2.2-3.2 4.3-.9.6.7 1.2 1.5 1.8 2.2.7.7 1.3 1.6 2.2 2 .8.4 2 .5 2.7.2 1.4-.7 2.2-.3 2.9.8 1.4 2 2.6 3.9 2.8 6.4 0 .6.2 1.2.7 1.9.6-.9 1.2-1.8 1.9-2.7 1.8-2.6 2.8-2.7 5.2-.6 2.1 1.9 4.3 3.2 7.4 2.9 2.2-.2 4.4.2 6.6.5 2.5.3 4.3 1.7 5.6 3.7 1.1 1.7 2.1 3.4 3.1 5.1 1.6 2.8 3.9 4.4 7 5.1 1.6.3 3.2.7 4.8 1.2 3.1.9 4.8 3 5.3 6.1.6 4.4.5 8.6-1.2 12.6z"/></symbol>
    <symbol viewBox="0 0 35.1 26.3" id="z-card"><path d="M30.7 0H4.4C2 0 0 2 0 4.4v17.5c0 2.4 2 4.4 4.4 4.4h26.2c2.4 0 4.4-2 4.4-4.4V4.4C35.1 2 33.1 0 30.7 0zM4.4 3h26.2c.8 0 1.4.6 1.4 1.4v4.3H3V4.4C3 3.6 3.6 3 4.4 3zm26.3 20.3H4.4c-.8 0-1.4-.6-1.4-1.4V11.8h29.1V22c0 .7-.7 1.3-1.4 1.3z"/></symbol>
    <symbol viewBox="0 0 28.09 24" id="z-heart"><path d="M25.09 1.7a8.94 8.94 0 012.7 4 7.85 7.85 0 010 4.3 7.61 7.61 0 01-2.1 3.6l-9.6 9.5a2.51 2.51 0 01-2 .9 2.89 2.89 0 01-2.1-.9l-9.6-9.5A8.21 8.21 0 01.29 10a7 7 0 01.1-4.3A8.41 8.41 0 013 1.7 6.6 6.6 0 016.49.1a9 9 0 014 .3 10.69 10.69 0 013.6 2.1 8.08 8.08 0 013.4-2.1 9 9 0 014-.3 7.4 7.4 0 013.6 1.6zm-1.2 10.1a5.07 5.07 0 001.4-2.5 4.78 4.78 0 000-2.9 5.84 5.84 0 00-1.8-2.7 5.08 5.08 0 00-3.8-1.1A5.82 5.82 0 0016 4.3l-1.9 1.9-1.9-1.9a5.77 5.77 0 00-3.7-1.7 4.83 4.83 0 00-3.7 1.1A4.36 4.36 0 003 6.4a5.7 5.7 0 00-.1 2.9 6.72 6.72 0 001.4 2.5l9.6 9.5q.15.3.3 0z"/></symbol>
    <symbol viewBox="0 0 46 32" id="z-mail"><path d="M1.47 0A1.51 1.51 0 000 1.6v28.8A1.51 1.51 0 001.47 32h43.06A1.51 1.51 0 0046 30.4V1.6A1.51 1.51 0 0044.53 0zm4 3.2h35L23 19.2zM2.94 5l11.45 10.52L2.94 26.77zm40.12 0v21.77L31.61 15.52zM16.69 17.6l5.38 4.91a1.45 1.45 0 001.91 0l5.38-4.91 11.4 11.15H5.29z"/></symbol>
    <symbol viewBox="0 0 15.75 15.75" id="z-whatsapp"><path d="M13.39 2.29a8.76 8.76 0 011.73 2.56 7.24 7.24 0 01.63 3 7.65 7.65 0 01-1.09 3.91 8 8 0 01-2.88 2.84 7.52 7.52 0 01-3.9 1.06 7.55 7.55 0 01-3.73-.95L0 15.75l1.12-4a7.62 7.62 0 01-1-3.91 7.61 7.61 0 011-3.94A8.1 8.1 0 014 1.05 7.62 7.62 0 017.88 0a7.74 7.74 0 013 .6 9.26 9.26 0 012.51 1.69zm-5.51 12a6.29 6.29 0 003.26-.88 6.62 6.62 0 002.4-2.36 6.24 6.24 0 00.91-3.27 6.12 6.12 0 00-.53-2.46 7.31 7.31 0 00-1.47-2.11 7.2 7.2 0 00-2.11-1.44 6.7 6.7 0 00-2.46-.47 6.5 6.5 0 00-3.27.88 6.67 6.67 0 00-2.36 2.39 6.08 6.08 0 00-.88 3.23 6 6 0 001 3.45l.14.25-.67 2.39 2.46-.64.25.14a6 6 0 003.33.92zm3.55-4.89l.1.07a1 1 0 01.28.18V10a1.87 1.87 0 01-.14.6 1.45 1.45 0 01-.56.59 1.25 1.25 0 01-.74.32 2.17 2.17 0 01-.95 0A5.61 5.61 0 018 11a7.75 7.75 0 01-3.25-2.84l-.07-.07a3.39 3.39 0 01-.78-2 2.23 2.23 0 01.64-1.59.75.75 0 01.53-.24h.42a.44.44 0 01.21.07c.07 0 .11.1.18.25L6.5 6a.46.46 0 010 .35 2.77 2.77 0 01-.42.65c-.1.11-.17.18-.17.25s0 .1.07.17a3.86 3.86 0 001.16 1.4 5.94 5.94 0 001.47.88c.18.11.32.11.43 0l.63-.78a.22.22 0 01.17-.14h.25c.11 0 .63.29 1.34.64z"/></symbol>
    <symbol viewBox="0 0 30 24" id="z-frete"><path d="M29.25 16.5c.188 0 .375.094.516.234.14.141.234.328.234.516v1.5a.776.776 0 01-.234.563c-.141.14-.328.187-.516.187H27c0 1.266-.469 2.344-1.313 3.188-.89.89-1.968 1.312-3.187 1.312-1.266 0-2.344-.422-3.188-1.313-.89-.842-1.312-1.92-1.312-3.187h-6c0 1.266-.469 2.344-1.313 3.188C9.797 23.578 8.72 24 7.5 24c-1.266 0-2.344-.422-3.188-1.313C3.422 21.845 3 20.767 3 19.5h-.75c-.656 0-1.172-.188-1.594-.656C.187 18.422 0 17.906 0 17.25v-15C0 1.64.188 1.125.656.656A2.155 2.155 0 012.25 0h15c.61 0 1.125.234 1.594.656.422.469.656.985.656 1.594V4.5h2.063c.609 0 1.125.234 1.593.656l4.688 4.688c.422.469.656.984.656 1.594V16.5h.75zM7.5 21.75c.61 0 1.125-.188 1.594-.656.422-.422.656-.938.656-1.594 0-.61-.234-1.125-.656-1.594-.469-.422-.985-.656-1.594-.656-.656 0-1.172.234-1.594.656-.468.469-.656.985-.656 1.594 0 .656.188 1.172.656 1.594.422.468.938.656 1.594.656zm15 0c.61 0 1.125-.188 1.594-.656.422-.422.656-.938.656-1.594 0-.61-.234-1.125-.656-1.594-.469-.422-.985-.656-1.594-.656-.656 0-1.172.234-1.594.656-.468.469-.656.985-.656 1.594 0 .656.188 1.172.656 1.594.422.468.938.656 1.594.656zM26.25 12v-.563L21.562 6.75H19.5V12h6.75z"/></symbol>
</svg>